<svg width="24" height="24" viewBox="0 0 24 24" fill="none" xmlns="http://www.w3.org/2000/svg">
<mask id="mask0_5181_15376" style="mask-type:alpha" maskUnits="userSpaceOnUse" x="3" y="3" width="18" height="18">
<path d="M19.2213 15.269L16.6813 14.979C16.0713 14.909 15.4713 15.119 15.0413 15.549L13.2013 17.389C10.3713 15.949 8.05125 13.639 6.61125 10.799L8.46125 8.94904C8.89125 8.51904 9.10125 7.91904 9.03125 7.30904L8.74125 4.78904C8.62125 3.77904 7.77125 3.01904 6.75125 3.01904H5.02125C3.89125 3.01904 2.95125 3.95904 3.02125 5.08904C3.55125 13.629 10.3813 20.449 18.9113 20.979C20.0413 21.049 20.9813 20.109 20.9813 18.979V17.249C20.9913 16.239 20.2313 15.389 19.2213 15.269Z" fill="black"/>
</mask>
<g mask="url(#mask0_5181_15376)">
<rect y="0.000976562" width="24" height="24" fill="#858C94"/>
</g>
</svg>
