<svg width="24" height="24" viewBox="0 0 24 24" fill="none" xmlns="http://www.w3.org/2000/svg">
<path d="M19.1485 8.87205C18.6744 8.87205 18.0464 8.86155 17.2646 8.86155C15.3579 8.86155 13.79 7.2834 13.79 5.35875V1.98195C13.79 1.7163 13.5779 1.5 13.3149 1.5H7.76103C5.16914 1.5 3.07422 3.6273 3.07422 6.23445V17.5482C3.07422 20.2834 5.26895 22.5 7.97728 22.5H16.2478C18.8303 22.5 20.9242 20.3863 20.9242 17.7771V9.34455C20.9242 9.07785 20.7132 8.8626 20.4491 8.86365C20.0052 8.8668 19.4728 8.87205 19.1485 8.87205Z" fill="#5F88D2"/>
<path d="M16.2878 2.09574C15.9739 1.76919 15.4258 1.99389 15.4258 2.44644V5.21529C15.4258 6.37659 16.3823 7.33209 17.5436 7.33209C18.2755 7.34049 19.2919 7.34259 20.155 7.34049C20.597 7.33944 20.8217 6.81129 20.5151 6.49209C19.4074 5.34024 17.4239 3.27594 16.2878 2.09574Z" fill="#B3D2F8"/>
<path d="M14.5385 15.0374C14.9701 15.0374 15.3208 15.3881 15.3208 15.8196C15.3208 16.2512 14.9701 16.6008 14.5385 16.6008H8.82232C8.39077 16.6008 8.04112 16.2512 8.04112 15.8196C8.04112 15.3881 8.39077 15.0374 8.82232 15.0374H14.5385ZM12.3765 9.79346C12.808 9.79346 13.1587 10.1442 13.1587 10.5757C13.1587 11.0073 12.808 11.3569 12.3765 11.3569H8.82222C8.39067 11.3569 8.04102 11.0073 8.04102 10.5757C8.04102 10.1442 8.39067 9.79346 8.82222 9.79346H12.3765Z" fill="#B3D2F8"/>
</svg>
