<svg width="65" height="177" viewBox="0 0 65 177" fill="none" xmlns="http://www.w3.org/2000/svg">
<path d="M32.4208 22.4321C32.4483 22.1482 32.4758 21.8643 32.4941 21.5804C32.4575 23.2196 32.4208 24.8589 32.375 26.498C32.5491 26.7178 32.7048 26.9559 32.8606 27.194C33.3554 27.9449 33.8868 28.6775 34.5648 29.2728C35.2428 29.868 36.0674 30.3167 36.9561 30.4175C37.1119 30.4358 37.2859 30.4449 37.4142 30.5365C37.5242 30.6189 37.5883 30.738 37.6433 30.8662C37.8723 31.3973 37.9548 31.9834 38.1197 32.5329C38.2846 33.0915 38.5595 33.6501 39.0542 33.9523C39.6315 32.8351 39.943 31.5805 39.9705 30.3167C40.6393 29.923 41.3082 29.52 41.8854 29.0072C42.4626 28.4852 42.9482 27.835 43.1314 27.0841C43.2414 26.6354 43.2505 26.1592 43.2505 25.7013C43.278 22.7618 43.3055 19.8131 43.049 16.8918C43.0123 16.4431 42.9574 15.976 42.71 15.6006C41.7571 16.9559 40.7676 18.3204 39.494 19.3826C37.5517 20.9852 34.9771 21.7819 32.4758 21.5713" fill="#F8D0E2"/>
<path d="M39.7679 20.9756C39.0624 21.873 37.7889 21.9829 37.4774 22.0378C36.1764 22.2668 34.8295 22.1844 33.5651 21.8089C33.5102 21.7906 33.3361 21.9097 33.1803 21.8455C32.8138 21.6807 32.878 20.8565 32.8596 20.8657C32.8505 20.8657 32.7314 21.9188 33.0062 23.5214C33.2994 25.2064 33.4827 26.232 34.3714 26.9829C34.4722 27.0745 35.5442 27.9444 36.836 27.7063C37.2941 27.6239 37.7248 27.4042 39.374 25.4628C41.5912 22.8529 42.1318 21.699 42.3425 21.1954C42.5441 20.7283 42.7456 20.2521 42.9014 19.5653C43.3412 17.5873 42.9289 15.6826 42.599 15.6642C42.3059 15.6459 41.9852 17.0836 41.7744 17.0287C41.747 17.0195 41.7378 16.9829 41.7195 16.9738C41.4263 16.6807 40.8399 16.4884 40.4643 16.7082C39.5939 17.2302 40.9224 19.5195 39.7679 20.9756Z" fill="#EBBCD5"/>
<path d="M30.9729 7.62466C30.8996 8.32063 30.8721 8.67776 30.6247 8.93417C30.359 9.21806 29.9101 9.35542 29.8002 9.72172C29.7635 9.84077 29.7635 9.96898 29.7727 10.0972C29.8551 13.0917 29.7177 16.1045 30.1483 19.0624C30.2583 19.8041 30.4049 20.5551 30.7897 21.1961C31.1745 21.8371 31.8433 22.3957 32.5855 22.414H39.8236C40.5749 22.414 41.2529 21.9104 41.7568 21.3518C42.5814 20.4268 42.7372 19.1082 42.8104 17.8811C42.9296 15.9946 42.9387 14.099 42.8563 12.2126C42.3432 11.8829 41.8759 11.48 41.4636 11.0313C41.601 9.20891 41.5552 7.36824 41.317 5.5459C40.7215 5.93051 40.0435 6.18692 39.338 6.29681C38.715 6.39754 38.0828 6.37923 37.4597 6.36092C36.0762 6.32429 34.6928 6.29681 33.3093 6.24186C32.787 6.22355 31.9716 6.19608 30.9546 6.1686C31.037 6.773 31.0096 7.28583 30.9729 7.62466Z" fill="#F8D0E2"/>
<path d="M39.3383 9.44667C39.5673 9.51993 39.7964 9.63898 39.8972 9.85876C39.6589 9.84044 39.4116 9.8313 39.1733 9.81298C38.9809 9.80382 38.7885 9.79466 38.6053 9.80382C38.2938 9.83129 37.9823 9.93202 37.7165 10.106C37.6249 10.161 37.5425 10.2251 37.4417 10.2525C37.2035 10.3166 36.8919 10.1701 36.7637 9.96866C37.3042 9.291 38.5595 9.19026 39.3383 9.44667Z" fill="black"/>
<path d="M33.5196 9.63902C33.3364 9.46503 33.089 9.39176 32.8416 9.37345C32.2003 9.30935 31.5314 9.58407 31.1191 10.0877C31.3299 9.84047 32.6217 10.0603 32.9058 10.106C33.0432 10.1335 33.5288 10.3258 33.657 10.2251C33.8311 10.0786 33.6479 9.76722 33.5196 9.63902Z" fill="black"/>
<path d="M37.7696 12.7799C37.7971 12.9539 37.8338 13.137 37.9437 13.2744C38.0537 13.4117 38.2552 13.4941 38.411 13.4117C38.5301 13.3476 38.5942 13.2194 38.6309 13.0912C38.75 12.7249 38.7683 12.322 38.6859 11.9465C38.6034 11.5619 38.2369 11.0583 37.8979 11.4703C37.6322 11.7817 37.7147 12.4044 37.7696 12.7799Z" fill="black"/>
<path d="M32.2461 12.3131C32.2095 12.6153 32.2645 12.9175 32.3286 13.2105C32.3652 13.3479 32.4111 13.5036 32.5393 13.5585C32.6493 13.6135 32.7867 13.5585 32.8783 13.4761C32.9608 13.3845 33.0066 13.2655 33.0433 13.1464C33.144 12.7985 33.254 12.075 32.9883 11.7728C32.6218 11.3516 32.292 11.9468 32.2461 12.3131Z" fill="black"/>
<path d="M32.4745 16.8918C31.8331 17.3313 31.3842 18.1647 31.6316 18.8973C34.2611 18.8515 36.8998 18.6592 39.5019 18.3203C39.6851 17.8625 39.4836 17.3313 39.1262 16.9925C38.7689 16.6537 38.2925 16.4888 37.8252 16.3515C36.1852 15.9028 33.9404 15.8844 32.4745 16.8918Z" fill="black"/>
<path d="M23.0385 168.44C24.0097 168.495 24.9076 168.54 25.7322 168.577C30.6523 168.824 31.9808 168.815 33.5567 168.266C34.143 168.055 34.8944 167.725 35.7281 167.185C35.9572 166.013 36.3328 163.989 36.6901 161.452C37.5422 155.335 37.6064 150.656 37.6705 149.117C38.0278 140.491 38.9532 102.396 39.6129 102.387C40.0801 102.377 40.3001 121.755 42.3432 150.93C42.783 157.158 43.1953 162.405 43.5251 166.233C45.0827 166.865 46.4479 167.103 47.4099 167.203C48.0604 167.267 50.6075 167.487 53.6769 166.443C54.8771 166.031 55.8208 165.546 56.4805 165.161C56.4163 155.207 56.4255 145.134 56.508 134.951C56.6454 118.504 56.9752 102.332 57.4792 86.4708C55.3169 87.1118 52.3941 87.8444 48.9033 88.3755C47.1534 88.6411 43.5618 89.1814 39.6862 89.0898C36.3695 89.0074 30.7347 88.4121 23.9547 85.2803C23.9089 89.5202 23.8264 95.8206 23.6065 103.495C23.3958 110.949 23.2675 111.883 23.066 118.843C22.5071 138.376 22.562 149.548 22.562 149.548C22.5987 154.31 22.7086 160.747 23.0385 168.44Z" fill="#203765"/>
<path d="M28.6442 6.0493C29.2214 5.77457 29.762 5.42658 30.2659 5.03281C29.8627 4.46505 29.7986 3.69581 30.0002 3.02731C30.2109 2.35882 30.6599 1.79105 31.1913 1.34233C31.6402 0.966877 32.1716 0.673835 32.7488 0.58226C33.2161 0.509 33.7017 0.591414 34.169 0.664674C36.3129 0.985187 38.4752 1.20497 40.6375 1.32402C41.1322 1.35149 41.6362 1.3698 42.1126 1.50716C42.589 1.64453 43.0471 1.91925 43.3128 2.3405C43.5236 2.68849 43.5877 3.09141 43.6427 3.49434C43.945 5.86614 43.8626 8.27456 43.7435 10.6647C43.7435 10.7379 43.7343 10.8204 43.7068 10.8936C43.661 11.0035 43.5602 11.0859 43.4778 11.1775C43.0929 11.553 42.8822 12.1116 42.928 12.6427C42.5341 12.0291 41.9568 11.5438 41.2788 11.2782C41.1048 9.4742 40.9856 7.66101 40.9398 5.85698C40.4634 6.21412 39.8679 6.38812 39.2906 6.53464C38.7043 6.68116 38.0996 6.80936 37.4948 6.78189C37.0551 6.76357 36.6336 6.66284 36.1938 6.61706C35.4792 6.5438 34.7554 6.6079 34.0315 6.63538C33.1062 6.67201 32.1808 6.65369 31.2554 6.58043C31.3287 7.19399 31.3562 7.80753 31.347 8.42109C31.347 8.57677 31.3379 8.7416 31.2554 8.86981C31.1546 9.02549 30.9714 9.09874 30.8248 9.19032C30.3667 9.48336 30.1193 10.0236 30.0552 10.5639C29.991 11.1042 30.0918 11.6445 30.1926 12.1757C29.8994 12.2398 29.5787 12.1848 29.3222 12.0291C29.1939 11.9559 29.084 11.8552 28.9374 11.8277C28.8183 11.8094 28.7175 11.8735 28.6533 11.965C28.4976 11.0584 28.6442 9.97787 28.6533 9.05296C28.635 8.04563 28.635 7.04746 28.6442 6.0493Z" fill="black"/>
<path d="M43.0764 11.0129C43.3879 10.6374 43.9376 10.436 44.3499 10.6741C44.7073 10.8847 44.8447 11.3334 44.9363 11.7455C45.0921 12.4598 45.1654 13.1924 45.0554 13.9067C44.9455 14.621 44.6248 15.3261 44.0934 15.7932C43.5803 16.2419 42.9114 16.4525 42.2701 16.6448C42.3067 14.9873 41.9127 12.3957 43.0764 11.0129Z" fill="#F8D0E2"/>
<path d="M30.7794 12.67C30.7245 12.2579 30.5962 11.855 30.3855 11.4978C30.2297 11.2231 30.0098 10.9667 29.7166 10.866C29.2585 10.7011 28.7363 10.9759 28.4522 11.3879C28.1774 11.8 28.0858 12.322 28.0399 12.8257C27.9575 13.7689 27.985 14.7488 28.3698 15.6096C28.7546 16.4704 29.5334 17.1755 30.4496 17.2213C30.4496 15.3989 30.4404 13.5766 30.4404 11.7542" fill="#F8D0E2"/>
<path d="M29.4509 43.815C28.6537 58.9433 28.3789 74.0898 28.6171 89.2363C35.3055 90.2345 42.1405 90.2345 48.8289 89.2271C48.8564 82.1026 48.0776 74.9872 48.8472 67.8993C49.1679 64.9323 49.3145 61.9561 49.287 58.9707C49.232 52.7803 48.4166 46.6081 48.5357 40.4176C48.5815 38.1191 48.7464 35.8205 48.554 33.5403C48.4624 32.4872 48.2975 31.4249 47.9218 30.4359C47.1156 28.2747 45.4205 26.5714 43.7805 24.9414C43.3316 26.1227 42.4886 27.7436 40.9036 29.0898C40.5921 29.3553 40.2806 29.5843 39.9782 29.7857C39.9507 30.2986 39.8866 30.848 39.7858 31.4341C39.5842 32.5788 39.2819 33.5678 38.9612 34.3828C38.3473 33.2198 37.7335 32.0568 37.1104 30.8938C36.9089 30.6191 36.7073 30.3352 36.5057 30.0605C36.2034 29.8956 35.8919 29.7125 35.5804 29.5019C33.6746 28.229 32.4927 26.5714 31.7597 25.2436C30.5595 26.2051 29.4417 27.1667 28.2415 28.1282C28.0032 28.3205 27.7559 28.5128 27.6093 28.7784C27.4535 29.0531 27.4077 29.3737 27.371 29.685C26.8946 34.4378 29.6982 39.0531 29.4509 43.815Z" fill="#B3D2F8"/>
<path opacity="0.9888" d="M61.9396 97.5145C61.848 97.8716 61.958 98.3661 61.7564 98.7507C61.6831 98.8789 61.5365 99.0804 61.2159 99.2636C60.8127 99.4925 59.5575 99.9961 57.78 100.646C56.8547 100.985 55.8468 100.344 55.7644 99.3643C55.2696 93.5859 54.9123 89.5474 54.8481 89.0713C54.839 88.9888 54.784 88.6775 54.9489 88.4119C55.0406 88.2654 55.1871 88.1738 55.3337 88.0822C56.5798 87.313 57.8716 86.5621 59.2826 86.1592C62.4161 85.2709 60.9868 86.791 62.2512 92.9266C62.5718 94.4559 62.3336 96.0035 61.9396 97.5145Z" fill="#F8D0E2"/>
<path d="M54.5286 102.652C50.1216 103.623 45.2473 98.7509 44.2761 93.8791C41.3533 79.2637 41.3533 65.6282 42.3245 51.0128C43.2957 41.2692 45.2473 32.5055 43.5156 23.1465C44.1661 23.2197 45.1282 23.3937 46.1543 23.8974C47.1805 24.4011 48.0601 25.1245 48.903 26.086C50.7446 28.1831 53.1176 28.9707 55.7472 30.1611C57.0757 30.7564 58.3034 31.3974 59.6686 31.8736C60.4474 32.1392 61.2353 32.423 61.8675 32.9359C62.7562 33.6685 63.2327 34.7857 63.5076 35.9029C63.9565 37.7435 64.1672 39.1721 64.1764 39.282C64.6437 48.815 64.3688 54.0897 64.3688 54.0897C63.9657 62.0476 64.2497 80.152 64.5154 82.5055C64.5337 82.6428 64.552 83.0824 64.3505 83.5494C63.9565 84.456 62.7746 84.6666 61.7851 84.7124C59.6411 84.8132 57.488 84.7399 55.3532 84.5018C55.2066 90.3077 55.06 96.1044 54.9226 101.91C54.9134 102.249 54.8493 102.789 54.5286 102.652Z" fill="white"/>
<path d="M8.10431 56.7546C9.1488 56.6905 10.1933 56.7546 11.2378 56.8187C12.3739 56.892 13.4825 56.9652 14.6186 57.0293C14.3896 57.9359 14.243 58.87 14.1972 59.804C14.1789 60.1703 14.1789 60.5458 14.1697 60.9121C14.1605 62.2399 14.1789 63.5769 14.3713 64.8956C14.6095 66.5165 15.1317 68.0824 15.4799 69.685C15.489 69.7399 15.4982 69.804 15.4707 69.8498C15.4432 69.8956 15.3608 69.8956 15.3333 69.8407C13.6108 69.5751 11.8517 69.6026 10.1108 69.4377C8.37002 69.2637 6.60173 68.87 5.18159 67.8626C4.49442 67.3773 3.90804 66.7637 3.37663 66.1044C2.75361 65.3352 2.18555 64.4286 2.18555 63.4396C2.18555 62.8901 2.35046 62.359 2.52454 61.8462C4.36614 56.196 6.48261 50.6374 8.85562 45.1886C9.22211 44.3462 9.60692 43.4945 10.12 42.7253C10.5506 42.0934 10.8805 41.4524 11.2744 40.8022C13.0427 37.8535 14.7469 34.8773 16.4053 31.8736C16.4969 31.7088 16.5885 31.544 16.7259 31.4249C16.8267 31.3425 16.9458 31.2876 17.0649 31.2326C19.7953 29.9964 22.6814 29.1447 25.5583 28.3114C26.3554 28.0733 27.1617 27.8443 27.9588 27.6062C28.0962 27.5696 28.2428 27.5238 28.3344 27.4139C28.4902 27.2399 28.4535 26.9835 28.5177 26.7638C28.6276 26.3883 28.9941 26.1685 29.3331 25.9854C30.3868 25.4084 30.854 24.9872 31.7061 24.6758C31.9902 24.5751 32.2284 24.5018 32.3933 24.4561C32.3841 24.7766 32.3658 25.2985 32.3475 25.9304C32.1276 35.4176 33.3736 42.4963 33.7493 44.7949C36.8369 63.9615 33.2545 88.5861 33.621 91.9194C33.7126 92.7802 33.8134 93.6685 33.5386 94.4927C33.4011 94.9139 33.1721 95.2985 32.9247 95.674C30.4876 99.4377 26.7585 102.341 22.5164 103.788C22.4798 102.277 22.4248 99.8223 22.3332 96.782C22.0125 85.5641 21.7377 76.4066 20.8398 65.2802C20.6474 62.8718 20.3267 59.218 19.8502 54.7399C18.5126 54.8315 17.4681 55.0604 16.7809 55.2344C15.0218 55.6923 14.637 56.1227 12.4655 56.6355C10.908 57.0293 9.66189 57.1484 8.10431 56.7546Z" fill="white"/>
<path opacity="0.2121" d="M20.2342 46.7363C20.0784 44.2912 19.8768 41.8553 19.6478 39.4194C19.1622 41.4341 18.6766 43.4579 18.1818 45.4725C17.852 46.8278 17.5222 48.1923 17.4122 49.5843C17.3206 50.6832 18.2918 53.2839 19.8952 52.2491C21.0496 51.4982 20.3075 47.9176 20.2342 46.7363Z" fill="#D6C5DF"/>
<path d="M17.9522 66.4429C19.1616 67.8073 20.9849 68.604 22.8082 68.5582C24.0542 68.5308 25.2545 68.137 26.4272 67.7249C28.956 66.8458 31.4573 65.9025 33.9311 64.8769C34.2151 64.7579 34.5266 64.6205 34.6641 64.3458C34.7648 64.1535 34.7649 63.9337 34.7649 63.7139C34.774 61.3421 34.3617 59.007 34.2884 56.6443C34.1693 52.789 33.7112 48.7872 33.2164 44.9593C29.066 46.6168 24.7781 47.9447 20.4077 48.9245C20.1145 48.9886 19.8121 49.0527 19.519 48.9886C19.2258 48.9245 18.7585 48.5765 18.7493 48.2835C14.4339 45.4264 10.5308 42.0381 6.72852 38.5308C8.38687 45.6919 10.0452 52.8531 11.7128 60.0143" fill="#203765"/>
<path opacity="0.9115" d="M23.7441 59.5751C26.4195 58.7052 27.7205 58.2198 28.1328 57.9634C28.2245 57.9085 28.6001 57.6704 28.8383 57.8077C28.9299 57.8627 28.9666 57.9542 28.9941 58.0092C28.8566 58.3938 28.5635 59.0074 27.9679 59.5385C27.5098 59.9506 27.0609 60.1246 26.3187 60.4176C25.8148 60.6191 25.0818 60.8572 24.1564 61.0312" fill="#F8D0E2"/>
<path opacity="0.9115" d="M24.1914 60.9026C25.4924 60.7836 26.3354 60.3807 26.8759 60.0235C27.0867 59.8861 28.406 58.9704 28.7634 59.1169C28.8642 59.1535 28.91 59.236 28.91 59.236C28.9924 59.3733 28.8825 59.5748 28.8458 59.648C28.3969 60.4631 26.9492 61.1865 26.9492 61.1865C26.0147 61.6536 25.2451 62.0199 24.6953 62.2763" fill="#F8D0E2"/>
<path opacity="0.9115" d="M24.6873 62.2581C25.2554 62.02 25.8876 61.7362 26.5473 61.3699C27.2436 60.9852 27.8483 60.5823 28.3706 60.2069C27.3444 62.1757 26.0159 63.1373 25.3287 63.5585C23.7711 64.5109 22.1586 64.7124 20.4819 64.9321C19.4924 65.0603 18.6586 65.0878 18.0631 65.0878C18.0173 63.2746 17.8523 61.4614 17.5592 59.6666C17.5317 59.5109 17.5133 59.3552 17.5592 59.2087C17.9073 59.2087 18.3196 59.0988 18.6586 59.0072C18.7136 58.9889 18.7777 58.9706 18.8052 58.9248C18.8327 58.879 18.8235 58.8241 18.8235 58.7783C18.6953 57.7984 18.5762 56.8094 18.4479 55.8296C18.3929 55.3992 18.3379 54.9596 18.3471 54.5292C18.3471 54.4285 18.3746 54.3003 18.4662 54.2636C18.5578 54.227 18.6586 54.2911 18.7319 54.3552C19.8222 55.2893 20.5735 56.5439 21.3248 57.7618C21.3981 57.8717 21.4714 57.9907 21.5814 58.064C21.7554 58.183 21.9845 58.1647 22.1952 58.1373C24.2017 57.8992 26.1808 57.4596 28.0957 56.8369C28.3064 56.7728 28.5813 56.7178 28.7187 56.901C28.8378 57.0658 28.6363 57.3864 28.5538 57.5054C28.0132 58.3754 24.8798 59.2728 23.7253 59.5841" fill="#F8D0E2"/>
<path d="M16.0103 66.3791C15.8821 64.3462 15.763 62.3132 15.6347 60.2894C15.5614 59.0531 15.424 57.6978 14.5352 56.8462C13.8572 58.0641 13.6007 59.4744 13.4907 60.8663C13.3075 63.1649 13.4907 65.4909 14.0313 67.7345C14.1504 68.229 14.8193 70.4359 15.5797 69.8224C16.3219 69.2271 16.0562 67.185 16.0103 66.3791Z" fill="#E0E0E0"/>
<path d="M16.6146 58.6773C16.9445 58.659 17.3476 58.6773 17.4942 58.9795C17.5309 59.0528 17.54 59.126 17.5583 59.2085C17.9432 61.3696 18.1814 63.5583 18.2913 65.7469C18.3005 65.9575 18.3096 66.1773 18.2272 66.3788C18.0439 66.8367 17.4759 66.9923 16.9811 67.0564C15.9458 67.1938 14.8922 67.203 13.8477 67.0748C13.7835 67.0656 13.7102 67.0564 13.6553 67.0198C13.582 66.9649 13.5545 66.8641 13.527 66.7726C13.3071 65.8385 13.078 64.9136 12.8581 63.9795C12.6566 63.1553 12.455 62.3129 12.4459 61.4612C12.4367 60.7652 12.5375 59.355 13.2613 59.0436C13.7102 58.8513 14.4249 58.888 14.9105 58.833C15.4785 58.7689 16.0466 58.714 16.6146 58.6773Z" fill="#5F88D2"/>
<path d="M35.4259 10.8018C35.2609 11.6168 35.1143 12.4684 34.9769 13.3658C34.8395 14.3091 34.7387 15.2065 34.6562 16.0673C35.2151 16.0124 35.7832 15.9483 36.3421 15.8933" fill="#EBBCD5"/>
<path d="M54.8222 84.4743C54.7398 84.4743 54.6664 84.4743 54.584 84.4743C57.6991 84.4835 60.9059 83.6044 64.0027 84.0714C63.4713 84.5934 62.2894 84.7216 61.5839 84.8315C60.347 85.0329 59.1284 85.0421 57.8915 84.9505C56.6638 84.8589 55.5369 84.4743 54.8222 84.4743Z" fill="#E0E0E0"/>
<path d="M44.2938 31.5986C43.9273 32.1389 43.8815 32.7708 43.3409 33.2287C43.2035 32.8441 44.0647 31.9375 44.2938 31.5986Z" fill="#5F88D2"/>
<path d="M44.0827 11.5713C44.1835 11.9925 43.9636 12.4229 43.762 12.7984C43.6063 13.0823 43.4414 13.5218 43.2123 13.7325C43.0932 13.3845 43.2489 12.8717 43.3864 12.5511C43.4322 12.4229 44.0827 11.5713 44.0827 11.5713Z" fill="#EBBCD5"/>
<path d="M29.158 12.0109C29.1396 11.9926 29.1121 11.9834 29.0847 11.9834C29.0388 11.9926 29.0297 12.0475 29.0297 12.0933C29.0114 12.4687 29.048 12.8625 29.2129 13.2105C29.3687 13.531 29.6985 13.8607 30.065 13.879C30.1475 13.2288 29.6802 12.368 29.158 12.0109Z" fill="#EBBCD5"/>
<path opacity="0.2121" d="M25.8691 33.4945C26.3914 31.9652 26.8037 30.3992 27.1152 28.815C27.1977 28.412 27.2068 27.7802 27.6833 27.7344C27.4634 29.7582 26.5197 31.5989 25.8691 33.4945Z" fill="#D6C5DF"/>
<path opacity="0.2121" d="M29.8358 33.6688C28.608 33.6779 26.8947 33.9893 25.7402 33.6596C26.4549 32.7621 28.892 33.5131 29.8358 33.6688Z" fill="#D6C5DF"/>
<path opacity="0.2121" d="M31.8063 48.5676C30.5969 46.553 29.5432 44.4742 28.6545 42.3314C28.2239 41.2874 27.8299 40.2252 27.4818 39.1629C27.1519 38.1739 27.0511 36.8186 26.4739 35.9395C25.9975 36.434 26.987 38.2929 27.1977 38.8882C27.6009 40.0237 28.0498 41.1409 28.5354 42.249C29.4883 44.401 30.5786 46.5164 31.8063 48.5676Z" fill="#D6C5DF"/>
<path opacity="0.2121" d="M50.9099 32.9634C50.9924 33.3114 50.7083 33.6685 50.3693 33.7967C50.0303 33.9249 49.6547 33.8974 49.2974 33.87C48.7659 33.8333 48.2345 33.8516 47.7031 33.8425C47.9047 33.3938 50.8641 32.7619 50.9099 32.9634Z" fill="#D6C5DF"/>
<path opacity="0.2121" d="M45.6875 24.6758C47.7307 26.7637 48.8576 29.5018 50.5343 31.8553C49.1233 29.3278 47.7398 26.7729 45.6875 24.6758Z" fill="#D6C5DF"/>
<path opacity="0.2121" d="M45.8246 42.615C45.0367 43.659 44.2396 44.7029 43.6624 45.8751C42.7553 47.7341 42.4621 49.8311 41.8574 51.8092C42.2606 50.2707 42.9111 48.3751 44.0105 46.3421C44.7343 44.9868 45.5131 43.8513 46.2461 42.9172C47.6662 41.1681 49.0863 39.4099 50.5156 37.6608C50.3874 37.4502 50.2591 37.2487 50.1308 37.0381C48.5091 38.6498 47.2081 40.7927 45.8246 42.615Z" fill="#D6C5DF"/>
<path opacity="0.2121" d="M55.0954 73.3845C55.0771 71.1226 55.3611 68.8699 55.6176 66.6171C56.3231 60.5823 56.8912 54.5384 57.3401 48.4761C57.4867 46.4157 57.615 44.2728 56.8454 42.3589C54.5365 52.0659 54.3074 62.13 54.0876 72.1117C54.0509 73.6135 53.3912 80.8662 55.3428 81.2325C55.8467 78.7692 55.1137 75.8937 55.0954 73.3845Z" fill="#D6C5DF"/>
<path opacity="0.2121" d="M52.5952 76.5254C50.4787 78.1646 47.7942 78.7964 45.6777 76.9375C47.9866 78.3386 50.3046 78.3019 52.5952 76.5254Z" fill="#D6C5DF"/>
<path opacity="0.2121" d="M28.3238 80.1885C29.0293 80.0786 29.7623 79.9321 30.4494 80.1152C29.1759 80.3808 27.9023 80.6189 26.6196 80.8203C25.7309 80.9577 24.2008 81.4797 23.3945 81.0676C23.761 79.9779 27.3068 80.3441 28.3238 80.1885Z" fill="#D6C5DF"/>
<path d="M11.0072 56.6447C10.4483 56.5989 9.89859 56.5531 9.3397 56.5806C8.04783 56.6355 6.76512 57.0934 5.73895 57.8809C4.22719 59.0531 3.35679 60.848 2.54136 62.5787C2.44057 62.7894 2.33979 63.0092 2.29397 63.2381C2.17487 63.8333 2.44974 64.4377 2.77041 64.9597C4.29133 67.4506 7.01251 69.163 9.91692 69.456C10.3659 69.5018 10.4758 69.4835 11.9967 69.63C13.4444 69.7582 14.6354 69.8956 15.4142 69.9964C15.1394 69.218 14.8278 68.2015 14.5438 66.9927C14.3422 66.1135 14.0765 64.9505 13.9483 63.4029C13.8658 62.3864 13.7375 60.6557 14.159 58.4762C14.2873 57.8077 14.4339 57.2674 14.5438 56.8828C14.3789 56.8828 14.104 56.8828 13.7742 56.8736C12.6198 56.837 12.0425 56.7271 11.0072 56.6447Z" fill="white"/>
<path opacity="0.2121" d="M1.27755 61.6814C1.19509 62.2949 1.12179 63.1649 1.37833 64.1814C1.82728 65.9762 3.00005 67.1026 3.58644 67.6063C3.28408 67.5239 2.85345 67.3773 2.4045 67.0843C0.828595 66.0404 0.507922 64.1173 0.434624 63.6502C-0.0784623 60.555 1.96472 57.588 3.13748 55.8938C4.47517 53.8242 5.63878 52.4964 5.67543 52.5239C5.74873 52.5696 1.91891 57.1118 1.27755 61.6814Z" fill="#D6C5DF"/>
<path d="M35.6264 35.0235C35.6081 34.3093 37.1198 32.1847 36.4235 31.5986C35.7272 32.377 35.599 34.0254 35.6264 35.0235Z" fill="#5F88D2"/>
<path d="M33.9955 32.6979C33.4091 32.0385 32.7769 31.3975 32.3555 30.6191C33.0243 32.0752 33.9863 33.3756 34.9667 34.6393C35.0675 34.7583 35.1683 34.8865 35.3149 34.9506C36.0478 35.262 35.269 34.2455 35.1499 34.0898C34.7834 33.6136 34.3986 33.1558 33.9955 32.6979Z" fill="#5F88D2"/>
<path d="M36.5893 67.8995C36.1129 58.3299 35.1142 48.7969 34.1247 39.2639C34.0789 38.7969 34.143 37.3409 33.7307 35.4727C33.3551 33.7694 32.7962 32.4599 32.4297 31.709C32.4847 33.0735 32.5946 35.0973 32.8328 37.5423C33.1993 41.3976 33.5933 43.2658 33.9964 46.1412C34.7569 51.5625 34.8943 55.7749 34.9951 59.0075C35.1234 62.9819 35.0318 65.8115 34.8943 69.9141C34.7477 74.3372 34.4545 80.2621 33.8223 87.3134C33.7582 88.1192 33.6941 88.9251 33.6391 89.731C34.2438 88.9068 35.0684 87.6247 35.6823 85.9214C36.6351 83.2749 36.4702 81.0405 36.5618 79.8958C36.8917 75.9123 36.7817 71.8921 36.5893 67.8995Z" fill="#5F88D2"/>
<path d="M42.8749 33.4758C42.8291 32.9355 42.1144 32.1937 41.7571 31.8274C41.2715 31.3329 40.6576 31.049 40.1445 30.6369C40.4927 30.2157 41.6563 31.1955 41.9312 31.4703C42.4534 32.0106 42.8107 32.7249 42.8749 33.4758Z" fill="#5F88D2"/>
<path d="M40.2809 89.5748C39.9694 85.6005 39.667 81.6353 39.3555 77.6609C39.1539 75.0327 38.9432 72.4045 38.8516 69.7671C38.7874 68.1371 38.7691 66.4979 38.7508 64.8679C38.6775 59.0803 38.6042 53.3019 38.5309 47.5144C38.4759 43.3569 38.4851 39.2085 38.9523 35.0693C38.8424 49.2268 38.8149 63.3386 39.5387 77.4778C39.7403 81.5162 39.9877 85.5455 40.2809 89.5748Z" fill="#5F88D2"/>
<path d="M62.4265 87.7343C61.0613 88.0091 59.3663 88.2105 57.4147 88.119C56.4985 88.0732 55.6648 87.9816 54.9043 87.8442C54.9684 86.7362 55.0326 85.6281 55.0967 84.52C56.2511 84.4193 57.4056 84.3186 58.5692 84.2178C59.1739 84.1263 59.8427 84.0438 60.5574 84.0072C61.1896 83.9706 61.7851 83.9614 62.3349 83.9706C62.3624 85.2252 62.399 86.4797 62.4265 87.7343Z" fill="#5F88D2"/>
<path d="M32.2828 23.9893C31.449 24.4288 30.9818 25.3263 30.6153 26.1962C29.3509 29.1724 28.6637 32.3958 28.5996 35.6284" stroke="black" stroke-width="0.5" stroke-miterlimit="10"/>
<path d="M43.332 23.4209C43.9459 23.5125 44.4773 23.9062 44.9079 24.355C45.9616 25.4355 46.6396 26.8366 47.0519 28.2835C47.4734 29.7304 47.6474 31.2414 47.8215 32.7341" stroke="black" stroke-width="0.5" stroke-miterlimit="10"/>
<path opacity="0.2121" d="M28.5538 39.4922C29.7075 39.4922 30.6428 38.5574 30.6428 37.4043C30.6428 36.2512 29.7075 35.3164 28.5538 35.3164C27.4001 35.3164 26.4648 36.2512 26.4648 37.4043C26.4648 38.5574 27.4001 39.4922 28.5538 39.4922Z" fill="#D6C5DF"/>
<path d="M44.7891 39.8221C44.8257 37.8715 45.293 35.9301 46.1451 34.1719C46.4657 33.5034 46.9239 32.8074 47.6477 32.6518C48.2707 32.5235 48.9212 32.8715 49.3152 33.3661C49.7092 33.8697 49.9016 34.4924 50.0573 35.1151C50.4879 36.8459 50.6987 38.6225 50.6895 40.399" stroke="black" stroke-width="0.5" stroke-miterlimit="10"/>
<path d="M29.0569 39.0807C30.0538 39.0807 30.8619 38.273 30.8619 37.2767C30.8619 36.2803 30.0538 35.4727 29.0569 35.4727C28.0601 35.4727 27.252 36.2803 27.252 37.2767C27.252 38.273 28.0601 39.0807 29.0569 39.0807Z" stroke="black" stroke-width="0.5" stroke-miterlimit="10"/>
</svg>
