<svg width="36" height="36" viewBox="0 0 36 36" fill="none" xmlns="http://www.w3.org/2000/svg">
<circle cx="18" cy="18" r="18" fill="#F0F4FD"/>
<path d="M12.7959 12.375C14.0043 12.375 14.9834 11.3959 14.9834 10.1875C14.9834 8.97912 14.0043 8 12.7959 8C11.5876 8 10.6084 8.97912 10.6084 10.1875C10.6084 11.3959 11.5876 12.375 12.7959 12.375ZM29.8103 17.1761C29.6791 16.1296 28.6098 15.4165 27.5852 15.8059C27.2221 15.9459 26.7776 15.7341 26.6096 15.35C26.4057 14.8819 26.1537 14.4348 25.8632 14.0191C25.6042 13.6508 25.6523 13.1678 25.9726 12.8974C26.3593 12.5701 26.5754 12.0898 26.5658 11.5779C26.5553 11.059 26.3156 10.5795 25.9078 10.2627C25.2384 9.743 24.5087 9.31075 23.7387 8.97825C23.5287 8.88725 23.3073 8.84088 23.0816 8.84088C22.2696 8.84088 21.5844 9.42888 21.4532 10.2391C21.3858 10.6556 21.0209 10.94 20.5747 10.891C20.0847 10.8385 19.5763 10.8385 19.0837 10.891C18.6541 10.9417 18.2743 10.6556 18.2061 10.2383C18.0766 9.43238 17.3923 8.847 16.5829 8.847C16.3992 8.847 16.2181 8.87763 16.0431 8.938C15.8287 9.0115 15.7053 9.23725 15.7604 9.45687C15.8278 9.72987 15.8593 9.96175 15.8593 10.1875C15.8593 10.387 15.8331 10.5952 15.7744 10.8438C15.7666 10.8779 15.7631 10.912 15.7631 10.9461L15.7823 12.8492C15.7841 12.9726 15.8374 13.0899 15.9293 13.1712C16.5348 13.7102 16.9198 14.4575 17.0126 15.2756L17.0642 15.7245C17.0834 15.8899 17.1946 16.0307 17.3512 16.0867C17.5104 16.1419 17.6837 16.1051 17.8036 15.9896C18.4624 15.3509 19.3252 15 20.2334 15C22.1637 15 23.7334 16.5697 23.7334 18.5C23.7334 20.4303 22.1637 22 20.2334 22C19.4757 22 18.7451 21.748 18.1203 21.2711C18.0092 21.1871 17.8666 21.16 17.7344 21.1985C17.6014 21.2361 17.4947 21.335 17.4457 21.4645C17.3363 21.7541 17.1928 22 17.0178 22.196C16.8638 22.3684 16.6862 22.5145 16.4893 22.6318C16.3659 22.7044 16.2872 22.833 16.2758 22.9765L15.9328 27.6359C15.9328 27.8485 16.0851 28.0296 16.2942 28.0664C16.3887 28.0839 16.4849 28.0917 16.5786 28.0917C17.3906 28.0917 18.0748 27.5037 18.2061 26.6944C18.2743 26.277 18.6409 25.997 19.0846 26.0416C19.5763 26.0941 20.0847 26.0941 20.5756 26.0416C21.0087 25.9961 21.3858 26.277 21.4532 26.6944C21.5844 27.5037 22.2704 28.0917 23.0816 28.0917C23.3073 28.0917 23.5287 28.0454 23.7387 27.9544C24.5096 27.6219 25.2393 27.1896 25.9078 26.6699C26.3156 26.3531 26.5553 25.8736 26.5658 25.3547C26.5763 24.8429 26.3602 24.3616 25.9726 24.0353C25.6523 23.764 25.6042 23.2819 25.8632 22.9126C26.1537 22.4979 26.4048 22.0507 26.6096 21.5826C26.7776 21.1976 27.1897 20.9745 27.5948 21.1302C28.5704 21.503 29.6791 20.8039 29.8103 19.7574C29.8646 19.3321 29.8917 18.8973 29.8917 18.4659C29.8917 18.0354 29.8646 17.6005 29.8103 17.1761ZM16.7238 20.4574L16.1437 15.3745C16.0063 14.1635 15.0464 13.25 13.9124 13.25H11.6786C10.5446 13.25 9.58469 14.1635 9.44731 15.3754L8.86719 20.4574C8.81906 20.8826 8.95031 21.3044 9.22681 21.615C9.46481 21.8828 9.78244 22.0376 10.1254 22.0569L10.6084 28.5949C10.6259 28.8224 10.8158 29 11.0451 29H14.5451C14.7743 29 14.9642 28.8233 14.9817 28.5949L15.4647 22.0569C15.8086 22.0376 16.1253 21.8819 16.3633 21.615C16.6416 21.3053 16.7719 20.8818 16.7238 20.4574Z" fill="#BFD2F3"/>
</svg>
