<svg width="359" height="47" viewBox="0 0 359 47" fill="none" xmlns="http://www.w3.org/2000/svg">
<g clip-path="url(#clip0_7745_1508)">
<path d="M61.8142 33.084H71.0676C71.8963 33.084 72.5634 33.6741 72.5634 34.4071V40.9899C72.5634 41.7229 71.8963 42.313 71.0676 42.313H61.8142C60.9855 42.313 60.3184 41.7229 60.3184 40.9899V34.4071C60.3184 33.6741 60.9855 33.084 61.8142 33.084Z" fill="#29375F"/>
<path d="M76.8306 34.0599C76.7291 34.0633 76.6299 34.0953 76.5419 34.153L73.5957 36.0928V39.304L76.5419 41.2439C76.6355 41.3054 76.7416 41.3378 76.8496 41.3377C76.9576 41.3377 77.0637 41.3052 77.1573 41.2436C77.2508 41.182 77.3285 41.0934 77.3825 40.9867C77.4366 40.88 77.4651 40.759 77.4652 40.6357V34.7611C77.4651 34.6671 77.4484 34.5741 77.4162 34.4876C77.384 34.4011 77.337 34.3229 77.2778 34.2575C77.2186 34.1921 77.1485 34.1409 77.0717 34.107C76.9949 34.0731 76.9129 34.057 76.8306 34.0599V34.0599Z" fill="#29375F"/>
</g>
<path d="M86.8544 33.2727H85.4311L88.5717 42H90.093L93.2337 33.2727H91.8104L89.3814 40.3807H89.2834L86.8544 33.2727ZM94.3917 42H95.6658V35.4545H94.3917V42ZM95.0352 34.4446C95.4741 34.4446 95.8406 34.1037 95.8406 33.6861C95.8406 33.2685 95.4741 32.9233 95.0352 32.9233C94.592 32.9233 94.2298 33.2685 94.2298 33.6861C94.2298 34.1037 94.592 34.4446 95.0352 34.4446ZM99.8303 42.1278C101.023 42.1278 101.492 41.3991 101.722 40.9815H101.829V42H103.073V33.2727H101.799V36.5156H101.722C101.492 36.1108 101.058 35.3693 99.8388 35.3693C98.2578 35.3693 97.0945 36.6179 97.0945 38.7401C97.0945 40.858 98.2408 42.1278 99.8303 42.1278ZM100.112 41.0412C98.9737 41.0412 98.3814 40.0398 98.3814 38.7273C98.3814 37.4276 98.9609 36.4517 100.112 36.4517C101.224 36.4517 101.82 37.3594 101.82 38.7273C101.82 40.1037 101.211 41.0412 100.112 41.0412ZM107.713 42.1321C109.14 42.1321 110.15 41.429 110.44 40.3636L109.234 40.1463C109.004 40.7642 108.45 41.0795 107.725 41.0795C106.635 41.0795 105.902 40.3722 105.868 39.1108H110.521V38.6591C110.521 36.294 109.106 35.3693 107.623 35.3693C105.799 35.3693 104.598 36.7585 104.598 38.7699C104.598 40.8026 105.782 42.1321 107.713 42.1321ZM105.872 38.1562C105.923 37.2273 106.596 36.4219 107.632 36.4219C108.62 36.4219 109.268 37.1548 109.272 38.1562H105.872ZM114.692 42.1321C116.537 42.1321 117.743 40.7812 117.743 38.7571C117.743 36.7202 116.537 35.3693 114.692 35.3693C112.847 35.3693 111.641 36.7202 111.641 38.7571C111.641 40.7812 112.847 42.1321 114.692 42.1321ZM114.696 41.0625C113.49 41.0625 112.928 40.0099 112.928 38.7528C112.928 37.5 113.49 36.4347 114.696 36.4347C115.893 36.4347 116.456 37.5 116.456 38.7528C116.456 40.0099 115.893 41.0625 114.696 41.0625ZM129.692 36.1108C129.393 34.2443 127.932 33.1534 126.087 33.1534C123.828 33.1534 122.162 34.8452 122.162 37.6364C122.162 40.4276 123.82 42.1193 126.087 42.1193C128.004 42.1193 129.406 40.9176 129.692 39.1918L128.362 39.1875C128.136 40.304 127.199 40.9176 126.095 40.9176C124.599 40.9176 123.47 39.7713 123.47 37.6364C123.47 35.5185 124.595 34.3551 126.099 34.3551C127.212 34.3551 128.145 34.9815 128.362 36.1108H129.692ZM133.922 42.1321C135.767 42.1321 136.973 40.7812 136.973 38.7571C136.973 36.7202 135.767 35.3693 133.922 35.3693C132.077 35.3693 130.871 36.7202 130.871 38.7571C130.871 40.7812 132.077 42.1321 133.922 42.1321ZM133.926 41.0625C132.721 41.0625 132.158 40.0099 132.158 38.7528C132.158 37.5 132.721 36.4347 133.926 36.4347C135.124 36.4347 135.686 37.5 135.686 38.7528C135.686 40.0099 135.124 41.0625 133.926 41.0625ZM139.67 38.1136C139.67 37.0696 140.309 36.473 141.195 36.473C142.06 36.473 142.585 37.0398 142.585 37.9901V42H143.859V37.8366C143.859 36.2173 142.968 35.3693 141.63 35.3693C140.646 35.3693 140.002 35.8253 139.7 36.5199H139.619V35.4545H138.396V42H139.67V38.1136ZM150.472 37.0526C150.208 36.0341 149.411 35.3693 147.996 35.3693C146.518 35.3693 145.469 36.1491 145.469 37.3082C145.469 38.2372 146.032 38.8551 147.259 39.1278L148.367 39.3707C148.998 39.5114 149.292 39.7926 149.292 40.2017C149.292 40.7088 148.751 41.1051 147.915 41.1051C147.153 41.1051 146.663 40.777 146.509 40.1335L145.278 40.321C145.491 41.4801 146.454 42.1321 147.924 42.1321C149.505 42.1321 150.6 41.2926 150.6 40.108C150.6 39.1832 150.012 38.6122 148.81 38.3352L147.771 38.0966C147.05 37.9261 146.739 37.6832 146.744 37.2401C146.739 36.7372 147.285 36.3793 148.009 36.3793C148.802 36.3793 149.168 36.8182 149.317 37.2571L150.472 37.0526ZM156.147 39.2855C156.152 40.3977 155.325 40.9261 154.609 40.9261C153.821 40.9261 153.275 40.3551 153.275 39.4645V35.4545H152.001V39.6179C152.001 41.2415 152.892 42.0852 154.149 42.0852C155.133 42.0852 155.802 41.5653 156.105 40.8665H156.173V42H157.426V35.4545H156.147V39.2855ZM160.412 33.2727H159.138V42H160.412V33.2727ZM165.181 35.4545H163.839V33.8864H162.565V35.4545H161.606V36.4773H162.565V40.3423C162.561 41.5312 163.468 42.1065 164.474 42.0852C164.879 42.081 165.152 42.0043 165.301 41.9489L165.071 40.8963C164.985 40.9134 164.828 40.9517 164.623 40.9517C164.21 40.9517 163.839 40.8153 163.839 40.0781V36.4773H165.181V35.4545ZM168.496 42.1449C169.578 42.1449 170.188 41.5952 170.43 41.1051H170.482V42H171.726V37.6534C171.726 35.7486 170.226 35.3693 169.186 35.3693C168.001 35.3693 166.911 35.8466 166.484 37.0398L167.682 37.3125C167.869 36.848 168.347 36.4006 169.203 36.4006C170.026 36.4006 170.447 36.831 170.447 37.5724V37.6023C170.447 38.0668 169.97 38.0582 168.794 38.1946C167.554 38.3395 166.284 38.6634 166.284 40.1506C166.284 41.4375 167.251 42.1449 168.496 42.1449ZM168.773 41.1222C168.053 41.1222 167.533 40.7983 167.533 40.1676C167.533 39.4858 168.138 39.2429 168.875 39.1449C169.288 39.0895 170.268 38.9787 170.452 38.7955V39.6392C170.452 40.4148 169.834 41.1222 168.773 41.1222ZM176.478 35.4545H175.136V33.8864H173.862V35.4545H172.903V36.4773H173.862V40.3423C173.858 41.5312 174.765 42.1065 175.771 42.0852C176.176 42.081 176.449 42.0043 176.598 41.9489L176.368 40.8963C176.282 40.9134 176.125 40.9517 175.92 40.9517C175.507 40.9517 175.136 40.8153 175.136 40.0781V36.4773H176.478V35.4545ZM177.888 42H179.162V35.4545H177.888V42ZM178.531 34.4446C178.97 34.4446 179.337 34.1037 179.337 33.6861C179.337 33.2685 178.97 32.9233 178.531 32.9233C178.088 32.9233 177.726 33.2685 177.726 33.6861C177.726 34.1037 178.088 34.4446 178.531 34.4446ZM183.633 42.1321C185.478 42.1321 186.684 40.7812 186.684 38.7571C186.684 36.7202 185.478 35.3693 183.633 35.3693C181.788 35.3693 180.582 36.7202 180.582 38.7571C180.582 40.7812 181.788 42.1321 183.633 42.1321ZM183.637 41.0625C182.431 41.0625 181.869 40.0099 181.869 38.7528C181.869 37.5 182.431 36.4347 183.637 36.4347C184.835 36.4347 185.397 37.5 185.397 38.7528C185.397 40.0099 184.835 41.0625 183.637 41.0625ZM189.381 38.1136C189.381 37.0696 190.02 36.473 190.906 36.473C191.771 36.473 192.295 37.0398 192.295 37.9901V42H193.57V37.8366C193.57 36.2173 192.679 35.3693 191.341 35.3693C190.357 35.3693 189.713 35.8253 189.411 36.5199H189.33V35.4545H188.107V42H189.381V38.1136Z" fill="#29375F"/>
<path d="M203.554 39.5114C204.589 39.5114 205.429 38.6719 205.429 37.6364C205.429 36.6009 204.589 35.7614 203.554 35.7614C202.518 35.7614 201.679 36.6009 201.679 37.6364C201.679 38.6719 202.518 39.5114 203.554 39.5114ZM213.918 42H219.662V40.8707H215.733V40.8068L217.467 38.9915C219.065 37.3764 219.521 36.6051 219.521 35.6293C219.521 34.2273 218.379 33.1534 216.734 33.1534C215.102 33.1534 213.909 34.2102 213.909 35.804H215.166C215.162 34.8665 215.767 34.2528 216.709 34.2528C217.595 34.2528 218.268 34.7983 218.268 35.6676C218.268 36.4389 217.808 36.9929 216.871 37.9858L213.918 41.0455V42ZM222.134 36.5455C222.598 36.5455 222.986 36.1662 222.986 35.6932C222.986 35.2287 222.598 34.8452 222.134 34.8452C221.665 34.8452 221.281 35.2287 221.281 35.6932C221.281 36.1662 221.665 36.5455 222.134 36.5455ZM222.134 40.9176C222.598 40.9176 222.986 40.5384 222.986 40.0653C222.986 39.6009 222.598 39.2173 222.134 39.2173C221.665 39.2173 221.281 39.6009 221.281 40.0653C221.281 40.5384 221.665 40.9176 222.134 40.9176ZM224.492 40.2955H228.63V42H229.887V40.2955H231.042V39.179H229.887V33.2727H228.263L224.492 39.2301V40.2955ZM228.638 39.179H225.873V39.1108L228.57 34.8409H228.638V39.179ZM235.565 42.1449C237.581 42.1449 238.761 40.5 238.761 37.6406C238.761 34.8026 237.564 33.1534 235.565 33.1534C233.562 33.1534 232.369 34.7983 232.365 37.6406C232.365 40.4957 233.545 42.1406 235.565 42.1449ZM235.565 41.0071C234.385 41.0071 233.673 39.8224 233.673 37.6406C233.678 35.4673 234.389 34.2699 235.565 34.2699C236.737 34.2699 237.453 35.4673 237.453 37.6406C237.453 39.8224 236.741 41.0071 235.565 41.0071ZM243.466 44.4545H244.74V40.9815H244.817C245.047 41.3991 245.516 42.1278 246.709 42.1278C248.294 42.1278 249.445 40.858 249.445 38.7401C249.445 36.6179 248.277 35.3693 246.696 35.3693C245.482 35.3693 245.043 36.1108 244.817 36.5156H244.71V35.4545H243.466V44.4545ZM244.714 38.7273C244.714 37.3594 245.311 36.4517 246.423 36.4517C247.578 36.4517 248.158 37.4276 248.158 38.7273C248.158 40.0398 247.561 41.0412 246.423 41.0412C245.328 41.0412 244.714 40.1037 244.714 38.7273ZM250.872 42H252.146V37.9645C252.146 37.0824 252.764 36.4688 253.489 36.4688C254.196 36.4688 254.686 36.9375 254.686 37.6491V42H255.956V37.8281C255.956 37.0398 256.438 36.4688 257.268 36.4688C257.942 36.4688 258.496 36.8438 258.496 37.7301V42H259.77V37.6108C259.77 36.1151 258.935 35.3693 257.75 35.3693C256.808 35.3693 256.101 35.821 255.786 36.5199H255.717C255.432 35.804 254.831 35.3693 253.957 35.3693C253.092 35.3693 252.449 35.7997 252.176 36.5199H252.095V35.4545H250.872V42Z" fill="#29375F" fill-opacity="0.6"/>
<circle cx="22" cy="25" r="22" fill="#D8DEE1"/>
<path d="M13.1186 30H14.6548V26.147H16.7429C16.7777 26.147 16.8075 26.147 16.8423 26.147L18.9105 30H20.6605L18.4034 25.8786C19.6513 25.4162 20.2727 24.3771 20.2727 23.0099C20.2727 21.1357 19.1094 19.8182 16.7479 19.8182H13.1186V30ZM14.6548 24.8246V21.1357H16.5838C18.1001 21.1357 18.7266 21.8565 18.7266 23.0099C18.7266 24.1584 18.1001 24.8246 16.6037 24.8246H14.6548ZM22.142 30H23.6783V26.8331L24.8814 25.451L28.1726 30H30.022L25.9006 24.402L30.0071 19.8182H28.0732L23.8026 24.6804H23.6783V19.8182H22.142V30Z" fill="white"/>
<rect x="227" width="132" height="22" rx="11" fill="#FFECCC"/>
<ellipse cx="238.332" cy="11.0722" rx="7" ry="7.00189" fill="#965E00" fill-opacity="0.4"/>
<line x1="238.041" y1="12.2178" x2="238.041" y2="7.11777" stroke="white" stroke-width="0.5" stroke-linecap="round"/>
<line x1="0.25" y1="-0.25" x2="5.92725" y2="-0.25" transform="matrix(0.887406 0.460989 -0.557403 0.830242 236.701 11.0703)" stroke="white" stroke-width="0.5" stroke-linecap="round"/>
<path d="M256.642 15H257.733L259.659 8.04545H259.727L261.653 15H262.744L265.131 6.27273H264.057L262.233 13.3807H262.148L260.29 6.27273H259.097L257.239 13.3807H257.153L255.33 6.27273H254.256L256.642 15ZM267.628 15.1534C268.77 15.1534 269.366 14.5398 269.571 14.1136H269.622V15H270.628V10.6875C270.628 8.60795 269.043 8.36932 268.207 8.36932C267.219 8.36932 266.094 8.71023 265.582 9.90341L266.537 10.2443C266.759 9.76705 267.283 9.25568 268.241 9.25568C269.166 9.25568 269.622 9.74574 269.622 10.5852V10.6193C269.622 11.1051 269.128 11.0625 267.935 11.2159C266.72 11.3736 265.395 11.642 265.395 13.142C265.395 14.4205 266.384 15.1534 267.628 15.1534ZM267.781 14.25C266.98 14.25 266.401 13.892 266.401 13.1932C266.401 12.4261 267.099 12.1875 267.884 12.0852C268.31 12.0341 269.452 11.9148 269.622 11.7102V12.6307C269.622 13.4489 268.974 14.25 267.781 14.25ZM272.463 15H273.469V8.45455H272.463V15ZM272.975 7.36364C273.367 7.36364 273.691 7.05682 273.691 6.68182C273.691 6.30682 273.367 6 272.975 6C272.583 6 272.259 6.30682 272.259 6.68182C272.259 7.05682 272.583 7.36364 272.975 7.36364ZM278.158 8.45455H276.76V6.88636H275.754V8.45455H274.766V9.30682H275.754V13.3977C275.754 14.5398 276.675 15.0852 277.527 15.0852C277.902 15.0852 278.141 15.017 278.277 14.9659L278.072 14.0625C277.987 14.0795 277.851 14.1136 277.629 14.1136C277.186 14.1136 276.76 13.9773 276.76 13.125V9.30682H278.158V8.45455ZM279.67 15H280.676V8.45455H279.67V15ZM280.182 7.36364C280.574 7.36364 280.898 7.05682 280.898 6.68182C280.898 6.30682 280.574 6 280.182 6C279.79 6 279.466 6.30682 279.466 6.68182C279.466 7.05682 279.79 7.36364 280.182 7.36364ZM283.524 11.0625C283.524 9.92045 284.231 9.27273 285.194 9.27273C286.127 9.27273 286.694 9.8821 286.694 10.9091V15H287.7V10.8409C287.7 9.17045 286.809 8.36932 285.484 8.36932C284.495 8.36932 283.882 8.8125 283.575 9.47727H283.49V8.45455H282.518V15H283.524V11.0625ZM292.18 17.5909C293.748 17.5909 295.009 16.875 295.009 15.1875V8.45455H294.038V9.49432H293.935C293.714 9.15341 293.305 8.36932 292.026 8.36932C290.373 8.36932 289.231 9.68182 289.231 11.6932C289.231 13.7386 290.424 14.8977 292.009 14.8977C293.288 14.8977 293.697 14.1477 293.918 13.7898H294.004V15.1193C294.004 16.2102 293.237 16.7045 292.18 16.7045C290.991 16.7045 290.573 16.0781 290.305 15.7159L289.504 16.2784C289.913 16.9645 290.718 17.5909 292.18 17.5909ZM292.146 13.9943C290.884 13.9943 290.237 13.0398 290.237 11.6761C290.237 10.3466 290.867 9.27273 292.146 9.27273C293.373 9.27273 294.021 10.2614 294.021 11.6761C294.021 13.125 293.356 13.9943 292.146 13.9943ZM302.68 13.3977C303.715 13.3977 304.555 12.5582 304.555 11.5227C304.555 10.4872 303.715 9.64773 302.68 9.64773C301.644 9.64773 300.805 10.4872 300.805 11.5227C300.805 12.5582 301.644 13.3977 302.68 13.3977ZM310.129 13.2102H314.237V15H315.242V13.2102H316.435V12.2727H315.242V6.27273H313.964L310.129 12.3409V13.2102ZM314.237 12.2727H311.271V12.2045L314.168 7.61932H314.237V12.2727ZM320.879 15.1193C322.805 15.1193 323.913 13.4872 323.913 10.6364C323.913 7.80682 322.788 6.15341 320.879 6.15341C318.97 6.15341 317.845 7.80682 317.845 10.6364C317.845 13.4872 318.953 15.1193 320.879 15.1193ZM320.879 14.1818C319.609 14.1818 318.868 12.9077 318.868 10.6364C318.868 8.36932 319.618 7.07386 320.879 7.07386C322.14 7.07386 322.89 8.36932 322.89 10.6364C322.89 12.9077 322.149 14.1818 320.879 14.1818ZM328.924 15H329.93V10.9091C329.93 9.95028 330.629 9.27273 331.413 9.27273C332.176 9.27273 332.708 9.77131 332.708 10.517V15H333.731V10.7386C333.731 9.89489 334.26 9.27273 335.18 9.27273C335.896 9.27273 336.51 9.65199 336.51 10.6193V15H337.515V10.6193C337.515 9.08097 336.689 8.36932 335.521 8.36932C334.583 8.36932 333.897 8.79972 333.561 9.47727H333.493C333.169 8.77841 332.598 8.36932 331.737 8.36932C330.885 8.36932 330.254 8.77841 329.981 9.47727H329.896V8.45455H328.924V15ZM339.354 15H340.36V8.45455H339.354V15ZM339.865 7.36364C340.257 7.36364 340.581 7.05682 340.581 6.68182C340.581 6.30682 340.257 6 339.865 6C339.473 6 339.15 6.30682 339.15 6.68182C339.15 7.05682 339.473 7.36364 339.865 7.36364ZM343.207 11.0625C343.207 9.92045 343.915 9.27273 344.878 9.27273C345.811 9.27273 346.378 9.8821 346.378 10.9091V15H347.384V10.8409C347.384 9.17045 346.493 8.36932 345.168 8.36932C344.179 8.36932 343.565 8.8125 343.259 9.47727H343.173V8.45455H342.202V15H343.207V11.0625Z" fill="#965E00"/>
<path d="M61.2784 18H63.0341V13.5966H65.4205C65.4602 13.5966 65.4943 13.5966 65.5341 13.5966L67.8977 18H69.8977L67.3182 13.2898C68.7443 12.7614 69.4545 11.5739 69.4545 10.0114C69.4545 7.86932 68.125 6.36364 65.4261 6.36364H61.2784V18ZM63.0341 12.0852V7.86932H65.2386C66.9716 7.86932 67.6875 8.69318 67.6875 10.0114C67.6875 11.3239 66.9716 12.0852 65.2614 12.0852H63.0341ZM71.4545 18H73.1534V9.27273H71.4545V18ZM72.3125 7.92614C72.8977 7.92614 73.3864 7.47159 73.3864 6.91477C73.3864 6.35795 72.8977 5.89773 72.3125 5.89773C71.7216 5.89773 71.2386 6.35795 71.2386 6.91477C71.2386 7.47159 71.7216 7.92614 72.3125 7.92614ZM75.4389 9.27273V18.5568C75.4389 19.3636 75.1037 19.8068 74.2969 19.8068H74.0241V21.267C74.1435 21.2727 74.2514 21.2727 74.3707 21.2727C76.1776 21.2727 77.1378 20.3182 77.1378 18.5682V9.27273H75.4389ZM76.2798 7.92614C76.8651 7.92614 77.3537 7.47159 77.3537 6.91477C77.3537 6.35795 76.8651 5.89773 76.2798 5.89773C75.6889 5.89773 75.206 6.35795 75.206 6.91477C75.206 7.47159 75.6889 7.92614 76.2798 7.92614ZM84.9517 14.3807C84.9574 15.8636 83.8551 16.5682 82.9006 16.5682C81.8494 16.5682 81.1222 15.8068 81.1222 14.6193V9.27273H79.4233V14.8239C79.4233 16.9886 80.6108 18.1136 82.2869 18.1136C83.5994 18.1136 84.4915 17.4205 84.8949 16.4886H84.9858V18H86.6562V9.27273H84.9517V14.3807ZM93.3097 18H95.0653V14.3807L96.4403 12.8011L100.202 18H102.315L97.6051 11.6023L102.298 6.36364H100.088L95.2074 11.9205H95.0653V6.36364H93.3097V18Z" fill="#29375F"/>
<defs>
<clipPath id="clip0_7745_1508">
<rect width="17.78" height="9.67802" fill="white" transform="translate(60 33)"/>
</clipPath>
</defs>
</svg>
