<svg width="36" height="36" viewBox="0 0 36 36" fill="none" xmlns="http://www.w3.org/2000/svg">
<circle cx="18" cy="18" r="18" fill="#F0F4FD"/>
<g clip-path="url(#clip0_7745_1363)">
<path d="M19.2389 25.003L17.8576 21.8269L16.2807 25.4823L10.3729 22.9523L10.5096 25.9561L17.9244 29.3207L26.4965 25.1938L26.3818 21.3569L19.2389 25.003ZM28.9629 13.1684L20.3727 10.6792L18.0108 12.7338L15.5822 10.9192L7.03516 14.3838L10.0169 16.7284L7.31958 20.8069L15.8674 24.4669L17.8552 19.8523L19.6286 23.9354L28.5802 19.3646L26.1406 15.7423L28.9629 13.1684ZM17.8238 19.2915L10.706 16.3454L17.9935 13.1907L25.5427 15.6946L17.8238 19.2915Z" fill="#BFD2F3"/>
</g>
<defs>
<clipPath id="clip0_7745_1363">
<rect width="22" height="20" fill="white" transform="translate(7 10)"/>
</clipPath>
</defs>
</svg>
