<svg width="17" height="6" viewBox="0 0 17 6" fill="none" xmlns="http://www.w3.org/2000/svg">
<path d="M0.556641 5.97554V0.67334H1.63778V5.02316H3.58017V5.97554H0.556641Z" fill="#203765"/>
<path d="M6.62152 0.663086H8.6647L9.85577 5.9653H8.77464L8.5639 5.00376H6.70398L6.49324 5.9653H5.41211L6.62152 0.663086ZM6.92386 4.07885H8.3715L7.83094 1.56053H7.45529L6.92386 4.07885Z" fill="#203765"/>
<path d="M14.2908 0.663086C15.3627 0.663086 15.9491 1.05686 15.9491 2.06419C15.9491 2.66858 15.7842 2.97079 15.3628 3.23636C15.8117 3.42867 16.0499 3.75833 16.0499 4.44515C16.0499 5.50742 15.3902 5.9653 14.3274 5.9653H12.2109V0.663086H14.2908ZM13.2829 1.58801V2.85173H14.245C14.6664 2.85173 14.8497 2.63196 14.8497 2.21071C14.8497 1.77115 14.6389 1.58801 14.2358 1.58801H13.2829ZM13.2829 3.75833V5.04955H14.2633C14.7122 5.04955 14.9504 4.92134 14.9504 4.39021C14.9504 3.95064 14.6939 3.74918 14.2633 3.74918H13.2829V3.75833Z" fill="#203765"/>
</svg>
