<svg width="390" height="262" viewBox="0 0 390 262" fill="none" xmlns="http://www.w3.org/2000/svg">
<path d="M111.646 228.013H62.3172C46.5216 228.013 33.6762 215.174 33.6762 199.387C33.6762 183.608 46.5216 170.76 62.3172 170.76H87.0735C96.2998 170.76 103.785 163.288 103.785 154.066C103.785 144.845 96.309 137.372 87.0735 137.372H62.3172C28.0965 137.372 0.261719 165.193 0.261719 199.396C0.261719 233.59 28.0965 261.42 62.3172 261.42H111.637C113.204 261.42 114.743 261.566 116.237 261.841C128.688 261.566 141.149 261.291 153.6 261.026C153.509 258.187 152.794 246.658 143.604 237.445C130.869 224.652 113.204 227.72 111.646 228.013Z" fill="url(#paint0_linear_65_103)"/>
<path d="M327.48 137.472L187.455 137.372C173.308 137.372 161.801 125.87 161.801 111.731V62.5365C161.801 46.7581 174.646 33.9101 190.442 33.9101C206.228 33.9101 219.083 46.749 219.083 62.5365V87.2801C219.083 87.6647 219.092 88.0402 219.119 88.4156L252.46 88.3241C252.479 87.9761 252.488 87.6373 252.488 87.2801V62.5365C252.488 28.3332 224.653 0.512695 190.432 0.512695C156.221 0.512695 128.377 28.3332 128.377 62.5365V111.731C128.377 144.286 154.874 170.769 187.436 170.769L327.471 170.87C343.258 170.87 356.112 183.718 356.112 199.496C356.112 215.284 343.267 228.123 327.471 228.123H278.252C260.395 228.251 242.538 228.379 224.672 228.507C224.745 239.615 224.827 250.723 224.901 261.841H274.23C275.54 261.63 276.878 261.52 278.243 261.52H327.462C361.674 261.52 389.518 233.7 389.518 199.496C389.518 165.293 361.683 137.472 327.48 137.472Z" fill="url(#paint1_linear_65_103)"/>
<defs>
<linearGradient id="paint0_linear_65_103" x1="493.142" y1="105.482" x2="-92.7282" y2="246.805" gradientUnits="userSpaceOnUse">
<stop stop-color="#FBDDD0"/>
<stop offset="1" stop-color="#FC6964"/>
</linearGradient>
<linearGradient id="paint1_linear_65_103" x1="188.274" y1="-61.6514" x2="321.384" y2="347.509" gradientUnits="userSpaceOnUse">
<stop stop-color="#FBDDD0"/>
<stop offset="1" stop-color="#FC6964"/>
</linearGradient>
</defs>
</svg>
