<svg width="132" height="69" viewBox="0 0 132 69" fill="none" xmlns="http://www.w3.org/2000/svg">
<path d="M18.1267 68.4932C22.3215 68.4932 25.7221 65.0944 25.7221 60.9016C25.7221 56.7089 22.3215 53.3101 18.1267 53.3101C13.9318 53.3101 10.5312 56.7089 10.5312 60.9016C10.5312 65.0944 13.9318 68.4932 18.1267 68.4932Z" fill="white"/>
<path d="M49.525 68.4931C54.9495 68.4931 59.3469 64.0979 59.3469 58.6762C59.3469 53.2545 54.9495 48.8594 49.525 48.8594C44.1005 48.8594 39.7031 53.2545 39.7031 58.6762C39.7031 64.0979 44.1005 68.4931 49.525 68.4931Z" fill="white"/>
<path d="M54.2887 68.4931C59.7131 68.4931 64.1105 64.0979 64.1105 58.6762C64.1105 53.2545 59.7131 48.8594 54.2887 48.8594C48.8642 48.8594 44.4668 53.2545 44.4668 58.6762C44.4668 64.0979 48.8642 68.4931 54.2887 68.4931Z" fill="white"/>
<path d="M81.904 68.4932C86.0989 68.4932 89.4995 65.0944 89.4995 60.9016C89.4995 56.7089 86.0989 53.3101 81.904 53.3101C77.7092 53.3101 74.3086 56.7089 74.3086 60.9016C74.3086 65.0944 77.7092 68.4932 81.904 68.4932Z" fill="white"/>
<path d="M85.5877 68.4932C89.7825 68.4932 93.1831 65.0944 93.1831 60.9016C93.1831 56.7089 89.7825 53.3101 85.5877 53.3101C81.3928 53.3101 77.9922 56.7089 77.9922 60.9016C77.9922 65.0944 81.3928 68.4932 85.5877 68.4932Z" fill="white"/>
<path d="M112.277 68.4931C117.701 68.4931 122.099 64.0979 122.099 58.6762C122.099 53.2545 117.701 48.8594 112.277 48.8594C106.852 48.8594 102.455 53.2545 102.455 58.6762C102.455 64.0979 106.852 68.4931 112.277 68.4931Z" fill="white"/>
<path d="M117.041 68.4931C122.465 68.4931 126.862 64.0979 126.862 58.6762C126.862 53.2545 122.465 48.8594 117.041 48.8594C111.616 48.8594 107.219 53.2545 107.219 58.6762C107.219 64.0979 111.616 68.4931 117.041 68.4931Z" fill="white"/>
<path d="M21.8103 68.4932C26.0051 68.4932 29.4058 65.0944 29.4058 60.9016C29.4058 56.7089 26.0051 53.3101 21.8103 53.3101C17.6154 53.3101 14.2148 56.7089 14.2148 60.9016C14.2148 65.0944 17.6154 68.4932 21.8103 68.4932Z" fill="white"/>
<path d="M1.49681 53.5204C1.46016 47.5131 1.42351 41.5058 1.3777 35.4985C3.30175 34.2622 5.22581 33.0351 7.15903 31.7988C9.62366 31.3776 12.0883 30.9472 14.5529 30.526C18.5202 23.1359 22.4874 15.7366 26.4546 8.34648C26.4638 8.23659 26.6104 6.78968 27.8381 6.14866C28.5253 5.79151 29.1941 5.87393 29.4598 5.91972C30.6509 5.91972 31.8511 5.91972 33.0422 5.91972C33.9309 4.18895 34.8105 2.45819 35.6992 0.718262C67.5104 0.718262 99.3123 0.718262 131.123 0.718262C131.123 20.3794 131.123 40.0314 131.123 59.6926C128.906 59.6926 126.689 59.6926 124.472 59.6926C124.508 58.8776 124.582 55.0956 121.75 52.1926C121.164 51.5882 119.524 49.9124 116.977 49.6377C113.459 49.2622 110.353 51.7897 108.969 54.4087C108.081 56.0845 107.943 57.7054 107.943 58.667C93.1736 58.667 78.4042 58.667 63.6256 58.667C63.1858 54.1157 60.4371 50.3611 56.6348 49.1249C53.2998 48.0443 50.3679 49.2988 49.6441 49.6377C44.101 52.2201 43.5329 58.8867 43.5054 59.1798C29.0842 59.1798 14.6629 59.1798 0.232422 59.1889C0.232422 57.797 0.232422 56.4142 0.232422 55.0223C0.64472 54.8758 1.05701 54.7292 1.47847 54.5827C1.49679 54.2347 1.49681 53.8776 1.49681 53.5204Z" fill="white"/>
<path opacity="0.2121" d="M91.5054 29.8666C79.0448 29.8025 66.5934 29.7384 54.1328 29.6834C57.3671 23.5571 60.5922 17.4307 63.8264 11.3135H91.5054C91.5054 17.4948 91.5054 23.6853 91.5054 29.8666Z" fill="#D6C5DF"/>
<path opacity="0.2121" d="M97.0957 29.8666C106.514 29.7842 115.942 29.7017 125.361 29.6285C125.169 23.5204 124.967 17.4124 124.775 11.3135H97.0957C97.0957 17.4948 97.0957 23.6853 97.0957 29.8666Z" fill="#D6C5DF"/>
<path d="M8.18555 32.7236C45.6681 32.7236 83.1506 32.7236 120.633 32.7236" stroke="#B59AC8" stroke-miterlimit="10" stroke-linecap="round"/>
<path opacity="0.2121" d="M17.082 28.9691C20.3346 23.0809 23.578 17.1926 26.8306 11.3135C38.1459 11.3135 49.4612 11.3135 60.7765 11.3135C57.4232 17.3391 54.0698 23.3739 50.7073 29.3996C39.5019 29.253 28.2966 29.1065 17.082 28.9691Z" fill="#D6C5DF"/>
<path d="M27.6816 8.19075C39.1619 8.09002 50.6421 7.98013 62.1223 7.87939L27.6816 8.19075Z" fill="white"/>
<path d="M36.7535 48.5114H4.84158C4.1086 48.5114 3.50391 47.9162 3.50391 47.1745V39.4913C3.50391 38.7587 4.09944 38.1543 4.84158 38.1543H36.7535C37.4865 38.1543 38.0912 38.7495 38.0912 39.4913V47.1745C38.0912 47.9162 37.4956 48.5114 36.7535 48.5114Z" fill="white"/>
<path d="M1.6793 60.3796H41.9289C42.7168 60.3796 43.3582 59.7386 43.3582 58.951V56.0755C43.3582 55.288 42.7168 54.647 41.9289 54.647H1.6793C0.891352 54.647 0.25 55.288 0.25 56.0755V58.951C0.25 59.7386 0.891352 60.3796 1.6793 60.3796Z" fill="white"/>
</svg>
