<svg width="157" height="175" viewBox="0 0 157 175" fill="none" xmlns="http://www.w3.org/2000/svg">
<path d="M129.908 1.32227H151.174C153.712 1.32227 155.773 3.38271 155.773 5.91934V18.5933H129.917V1.32227H129.908Z" stroke="#FDE1F1" stroke-miterlimit="10"/>
<path d="M129.908 1.32227H104.053V18.5933H129.908V1.32227Z" stroke="#FDE1F1" stroke-miterlimit="10"/>
<path d="M104.053 1.32227H78.1973V18.5933H104.053V1.32227Z" stroke="#FDE1F1" stroke-miterlimit="10"/>
<path d="M78.1975 1.32227H52.3418V18.5933H78.1975V1.32227Z" stroke="#FDE1F1" stroke-miterlimit="10"/>
<path d="M52.342 1.32227H26.4863V18.5933H52.342V1.32227Z" stroke="#FDE1F1" stroke-miterlimit="10"/>
<path d="M4.71724 1.32227H26.4866V18.5933H0.630894V5.41567C0.621731 3.15377 2.45418 1.32227 4.71724 1.32227Z" stroke="#FDE1F1" stroke-miterlimit="10"/>
<path d="M155.764 18.5938H129.908V35.8648H155.764V18.5938Z" stroke="#FDE1F1" stroke-miterlimit="10"/>
<path d="M129.908 18.5938H104.053V35.8648H129.908V18.5938Z" stroke="#FDE1F1" stroke-miterlimit="10"/>
<path d="M104.053 18.5938H78.1973V35.8648H104.053V18.5938Z" stroke="#FDE1F1" stroke-miterlimit="10"/>
<path d="M78.1975 18.5938H52.3418V35.8648H78.1975V18.5938Z" stroke="#FDE1F1" stroke-miterlimit="10"/>
<path d="M52.342 18.5938H26.4863V35.8648H52.342V18.5938Z" stroke="#FDE1F1" stroke-miterlimit="10"/>
<path d="M26.4768 18.5938H0.621094V35.8648H26.4768V18.5938Z" stroke="#FDE1F1" stroke-miterlimit="10"/>
<path d="M155.764 35.8643H129.908V53.1353H155.764V35.8643Z" stroke="#FDE1F1" stroke-miterlimit="10"/>
<path d="M129.908 35.8643H104.053V53.1353H129.908V35.8643Z" stroke="#FDE1F1" stroke-miterlimit="10"/>
<path d="M104.053 35.8643H78.1973V53.1353H104.053V35.8643Z" stroke="#FDE1F1" stroke-miterlimit="10"/>
<path d="M78.1975 35.8643H52.3418V53.1353H78.1975V35.8643Z" stroke="#FDE1F1" stroke-miterlimit="10"/>
<path d="M52.342 35.8643H26.4863V53.1353H52.342V35.8643Z" stroke="#FDE1F1" stroke-miterlimit="10"/>
<path d="M26.4768 35.8643H0.621094V53.1353H26.4768V35.8643Z" stroke="#FDE1F1" stroke-miterlimit="10"/>
<path d="M155.764 53.1357H129.908V70.4068H155.764V53.1357Z" stroke="#FDE1F1" stroke-miterlimit="10"/>
<path d="M129.908 53.1357H104.053V70.4068H129.908V53.1357Z" stroke="#FDE1F1" stroke-miterlimit="10"/>
<path d="M104.053 53.1357H78.1973V70.4068H104.053V53.1357Z" stroke="#FDE1F1" stroke-miterlimit="10"/>
<path d="M78.1975 53.1357H52.3418V70.4068H78.1975V53.1357Z" stroke="#FDE1F1" stroke-miterlimit="10"/>
<path d="M52.342 53.1357H26.4863V70.4068H52.342V53.1357Z" stroke="#FDE1F1" stroke-miterlimit="10"/>
<path d="M26.4768 53.1357H0.621094V70.4068H26.4768V53.1357Z" stroke="#FDE1F1" stroke-miterlimit="10"/>
<path d="M155.764 70.4067H129.908V87.6778H155.764V70.4067Z" stroke="#FDE1F1" stroke-miterlimit="10"/>
<path d="M129.908 70.4067H104.053V87.6778H129.908V70.4067Z" stroke="#FDE1F1" stroke-miterlimit="10"/>
<path d="M104.053 70.4067H78.1973V87.6778H104.053V70.4067Z" stroke="#FDE1F1" stroke-miterlimit="10"/>
<path d="M78.1975 70.4067H52.3418V87.6778H78.1975V70.4067Z" stroke="#FDE1F1" stroke-miterlimit="10"/>
<path d="M52.342 70.4067H26.4863V87.6778H52.342V70.4067Z" stroke="#FDE1F1" stroke-miterlimit="10"/>
<path d="M26.4768 70.4067H0.621094V87.6778H26.4768V70.4067Z" stroke="#FDE1F1" stroke-miterlimit="10"/>
<path d="M155.764 87.6685H129.908V104.94H155.764V87.6685Z" stroke="#FDE1F1" stroke-miterlimit="10"/>
<path d="M129.908 87.6685H104.053V104.94H129.908V87.6685Z" stroke="#FDE1F1" stroke-miterlimit="10"/>
<path d="M104.053 87.6685H78.1973V104.94H104.053V87.6685Z" stroke="#FDE1F1" stroke-miterlimit="10"/>
<path d="M78.1975 87.6685H52.3418V104.94H78.1975V87.6685Z" stroke="#FDE1F1" stroke-miterlimit="10"/>
<path d="M52.342 87.6685H26.4863V104.94H52.342V87.6685Z" stroke="#FDE1F1" stroke-miterlimit="10"/>
<path d="M26.4768 87.6685H0.621094V104.94H26.4768V87.6685Z" stroke="#FDE1F1" stroke-miterlimit="10"/>
<path d="M155.764 104.939H129.908V122.21H155.764V104.939Z" stroke="#FDE1F1" stroke-miterlimit="10"/>
<path d="M129.908 104.939H104.053V122.21H129.908V104.939Z" stroke="#FDE1F1" stroke-miterlimit="10"/>
<path d="M104.053 104.939H78.1973V122.21H104.053V104.939Z" stroke="#FDE1F1" stroke-miterlimit="10"/>
<path d="M78.1975 104.939H52.3418V122.21H78.1975V104.939Z" stroke="#FDE1F1" stroke-miterlimit="10"/>
<path d="M52.342 104.939H26.4863V122.21H52.342V104.939Z" stroke="#FDE1F1" stroke-miterlimit="10"/>
<path d="M26.4768 104.939H0.621094V122.21H26.4768V104.939Z" stroke="#FDE1F1" stroke-miterlimit="10"/>
<path d="M155.764 122.21H129.908V139.482H155.764V122.21Z" stroke="#FDE1F1" stroke-miterlimit="10"/>
<path d="M129.908 122.21H104.053V139.482H129.908V122.21Z" stroke="#FDE1F1" stroke-miterlimit="10"/>
<path d="M104.053 122.21H78.1973V139.482H104.053V122.21Z" stroke="#FDE1F1" stroke-miterlimit="10"/>
<path d="M78.1975 122.21H52.3418V139.482H78.1975V122.21Z" stroke="#FDE1F1" stroke-miterlimit="10"/>
<path d="M52.342 122.21H26.4863V139.482H52.342V122.21Z" stroke="#FDE1F1" stroke-miterlimit="10"/>
<path d="M26.4768 122.21H0.621094V139.482H26.4768V122.21Z" stroke="#FDE1F1" stroke-miterlimit="10"/>
<path d="M155.764 139.481H129.908V156.752H155.764V139.481Z" stroke="#FDE1F1" stroke-miterlimit="10"/>
<path d="M129.908 139.481H104.053V156.752H129.908V139.481Z" stroke="#FDE1F1" stroke-miterlimit="10"/>
<path d="M104.053 139.481H78.1973V156.752H104.053V139.481Z" stroke="#FDE1F1" stroke-miterlimit="10"/>
<path d="M78.1975 139.481H52.3418V156.752H78.1975V139.481Z" stroke="#FDE1F1" stroke-miterlimit="10"/>
<path d="M52.342 139.481H26.4863V156.752H52.342V139.481Z" stroke="#FDE1F1" stroke-miterlimit="10"/>
<path d="M26.4768 139.481H0.621094V156.752H26.4768V139.481Z" stroke="#FDE1F1" stroke-miterlimit="10"/>
<path d="M155.764 156.752H129.908V174.024H155.764V156.752Z" stroke="#FDE1F1" stroke-miterlimit="10"/>
<path d="M129.908 156.752H104.053V174.024H129.908V156.752Z" stroke="#FDE1F1" stroke-miterlimit="10"/>
<path d="M104.053 156.752H78.1973V174.024H104.053V156.752Z" stroke="#FDE1F1" stroke-miterlimit="10"/>
<path d="M78.1975 156.752H52.3418V174.024H78.1975V156.752Z" stroke="#FDE1F1" stroke-miterlimit="10"/>
<path d="M52.342 156.752H26.4863V174.024H52.342V156.752Z" stroke="#FDE1F1" stroke-miterlimit="10"/>
<path d="M26.4768 156.752H0.621094V174.024H26.4768V156.752Z" stroke="#FDE1F1" stroke-miterlimit="10"/>
</svg>
