<svg width="74" height="178" viewBox="0 0 74 178" fill="none" xmlns="http://www.w3.org/2000/svg">
<path d="M54.5706 171.894C54.5614 172.151 54.5614 172.425 54.6347 172.673C54.708 172.911 54.8546 173.121 55.0012 173.323C55.9999 174.641 57.3375 175.685 58.8493 176.345C62.0011 177.709 65.611 177.288 69.0193 176.848C69.3492 176.803 69.734 176.729 69.8989 176.445C69.9722 176.317 69.9997 176.171 70.0088 176.015C70.2012 174.193 69.6882 172.315 68.5979 170.841C67.5076 169.376 65.8584 168.332 64.0626 167.984C64.2183 165.988 64.145 163.973 63.8244 162.004C63.7969 161.839 63.7602 161.665 63.6411 161.555C63.5129 161.445 63.3296 161.427 63.1555 161.418C61.4514 161.345 59.7564 161.272 58.0522 161.198C56.9436 161.152 55.3952 160.685 54.8912 161.94C54.3873 163.185 54.7263 165.182 54.6897 166.51C54.6622 168.304 54.6164 170.099 54.5706 171.894Z" fill="#5F88D2"/>
<path d="M13.46 163.771C13.3958 164.678 13.2767 165.585 13.121 166.482C13.0568 166.839 12.9835 167.215 12.782 167.517C12.5712 167.828 12.2597 168.039 11.9391 168.24C10.1249 169.348 8.1001 170.054 6.16688 170.914C4.22449 171.784 2.30959 172.856 0.990234 174.513C2.2821 176.372 4.93914 177.334 7.2022 177.453C9.46525 177.572 11.7008 176.949 13.854 176.226C15.9979 175.502 18.1235 174.651 20.3591 174.266C20.6889 174.211 21.0463 174.156 21.3028 173.945C21.6968 173.634 21.7792 173.066 21.8251 172.563C22.1366 169.202 22.3839 165.832 22.5672 162.462C19.5986 162.956 16.4194 163.286 13.46 163.771Z" fill="#5F88D2"/>
<path d="M25.7829 110.585C27.936 100.759 29.6127 90.7862 32.9386 81.2899C33.0485 80.9785 33.1676 80.6488 33.4058 80.4108C33.809 80.0078 34.432 79.9712 35.0001 79.9163C38.5733 79.6049 42.0183 78.0023 44.5471 75.4657C45.0968 74.9071 45.6374 74.2935 46.3703 74.0188C47.0575 73.7532 47.8271 73.8265 48.5693 73.9089C52.8663 74.376 57.1634 74.8338 61.4605 75.3009C62.1843 75.2642 62.8989 75.2276 63.6227 75.2001C64.4382 82.8924 65.2536 90.5848 66.069 98.2679C65.9683 104.88 65.895 111.528 65.84 118.195C65.7026 133.762 65.6751 149.202 65.7392 164.495C64.7405 164.696 63.5953 164.852 62.3309 164.889C58.9775 164.99 56.2197 164.229 54.3506 163.524C52.509 141.51 50.6583 119.486 48.8167 97.4712C45.3075 106.317 42.5864 113.524 40.7539 118.479C37.9961 125.933 37.8129 126.729 35.1741 133.689C32.1598 141.656 30.9779 144.376 28.7606 150.585C26.8365 155.988 25.4164 160.392 24.5643 163.131C23.2175 164.01 19.2411 166.354 14.3027 165.539C12.8642 165.301 11.6548 164.852 10.6836 164.376C11.0684 163.002 11.6548 160.905 12.3878 158.359C16.749 143.167 18.7921 137.892 21.44 128.14C23.0342 122.325 24.5002 116.473 25.7829 110.585Z" fill="#203765"/>
<path d="M64.1917 45.0816C64.2742 43.241 64.6407 41.6659 62.341 41.7758C60.7101 41.849 59.0426 42.2153 57.4026 42.545C58.2821 37.3069 58.9601 32.023 59.4274 26.73C59.4457 26.5285 59.464 26.3179 59.4274 26.1164C59.3449 25.6494 58.9968 25.2922 58.6578 24.9534C58.3646 24.6604 58.1447 24.3948 58.0164 24.4589C57.9248 24.5047 57.934 24.697 57.934 24.7703C57.9798 26.5651 57.5766 28.7355 57.7782 29.8069C57.7874 29.871 57.824 30.0358 57.7507 30.2281C57.6591 30.4754 57.4392 30.5944 57.4026 30.6219C56.5321 31.3545 55.9458 32.4168 55.7808 33.5432C55.4693 32.7739 55.451 31.9223 55.3594 31.0981C55.2678 30.2739 55.0754 29.404 54.5073 28.8087C53.8385 28.1036 52.8031 27.9113 51.8869 27.6091C50.6409 27.197 49.4864 26.5194 48.5244 25.6311C48.3137 25.4296 48.1029 25.219 47.9655 24.9626C47.8006 24.6695 47.7273 24.3307 47.6815 23.9919C47.6173 23.5065 47.5898 23.0212 47.6173 22.5358C47.2875 22.4717 46.9393 22.6457 46.7103 22.893C46.4812 23.1402 46.3346 23.4607 46.1972 23.7629C46.0323 24.1384 45.6108 24.5597 45.7757 24.9443C46.1789 25.9058 46.8294 26.7391 47.4158 27.6091C49.2757 30.3747 50.5034 33.4974 51.7128 36.6018C52.4183 38.415 53.133 40.2282 53.8385 42.0413C53.9759 42.3985 54.1133 42.7556 54.2599 43.1128C50.6225 43.708 46.9302 44.2025 43.302 43.6073C42.3766 47.9479 41.5062 52.4534 40.7091 57.1329C39.6646 63.2776 38.8308 69.2117 38.1895 74.8802C44.658 73.0578 48.9642 73.6805 51.7586 74.6512C54.1042 75.4663 57.0269 77.6274 60.4994 76.7483C61.7271 76.4369 62.6525 75.86 63.248 75.4205C63.3855 73.3326 63.587 70.2098 63.8252 66.3912C64.0909 62.2245 64.2192 60.1274 64.2559 59.4681C64.8972 45.86 64.0726 47.9021 64.1917 45.0816Z" fill="#FC6964"/>
<path d="M59.2975 39.2481C58.9401 41.1712 58.5828 43.1126 57.8773 44.9441C57.5017 45.9239 57.0252 46.8671 56.8053 47.8928C56.6404 48.6345 56.6221 49.3946 56.5946 50.1547C56.3381 57.966 56.0907 65.7866 56.0999 73.6071C56.0999 77.2334 56.1823 80.9514 57.4742 84.3396C58.7661 87.7279 61.533 90.7774 65.1063 91.4184C64.9505 89.5411 64.7948 87.673 64.6482 85.7957C64.1168 79.3854 63.6037 72.847 65.0605 66.5741C64.9322 70.7682 64.7948 74.9715 64.6665 79.1657C67.296 78.0942 70.2463 79.3671 72.7934 80.6126C74.0761 76.7481 72.9033 72.5539 72.83 68.488C72.7842 66.2261 73.0866 63.9825 73.0866 61.7206C73.0866 58.7811 72.5918 55.869 72.097 52.966C70.9609 46.2811 69.8157 39.5778 68.0565 33.0302C67.8091 32.0961 67.5251 31.1437 66.8929 30.4111C66.3523 29.7884 65.601 29.4038 64.8681 29.0283C63.567 28.3598 62.1744 27.4166 60.7817 27.0137C60.2503 28.7444 60.571 31.1162 60.3419 32.9752C60.0671 35.0906 59.6823 37.1693 59.2975 39.2481Z" fill="white"/>
<path d="M49.9064 13.79C49.0085 14.0006 48.0099 13.6709 47.4235 12.9566C46.8371 12.2515 46.6905 11.1984 47.0661 10.3559C47.112 10.2552 47.1669 10.1453 47.2494 10.072C47.3502 9.9713 47.4968 9.9072 47.6342 9.87057C48.2756 9.68742 48.9994 9.87057 49.5308 10.2735C50.0713 10.6673 50.447 11.2625 50.6761 11.8944C50.9967 11.464 51.0242 10.8871 51.0334 10.3468C51.07 8.99145 51.0975 7.68193 51.1342 6.32661C51.7847 6.34493 53.1773 6.28999 54.6708 5.48413C55.926 4.80647 56.6773 3.90903 57.0529 3.38705C57.1629 3.72588 57.3095 4.08302 57.5385 4.431C58.7296 6.26251 61.0293 6.5464 61.5699 6.60134C61.7623 5.32845 61.3225 3.98229 60.4154 3.0757C59.5084 2.1691 58.1616 1.72038 56.888 1.91269C54.7441 0.401699 51.748 0.273492 49.4941 1.61049C47.5517 2.75518 46.3148 4.76983 45.2337 6.7387C43.8594 9.25702 42.5217 11.9493 40.1395 13.561C38.756 14.4951 37.0794 15.0171 35.8974 16.1893C35.3569 16.7296 34.9537 17.3706 34.5597 18.0208C33.8909 19.1197 33.2404 20.246 32.9289 21.4915C32.6632 22.5354 32.6449 23.6435 32.8739 24.6966C32.993 25.246 33.277 26.3632 34.1933 27.224C35.3202 28.2863 36.7953 28.3596 37.5649 28.4054C42.2377 28.6435 50.2912 22.3156 50.7035 21.9951" fill="black"/>
<path d="M47.6068 13.3506C48.5688 13.607 49.5767 13.6894 50.5662 13.5887C50.6028 14.3854 50.6395 15.1821 50.6761 15.9788C50.7036 16.5466 50.7677 17.1967 51.2167 17.5447C51.574 17.8286 52.0688 17.8286 52.5177 17.8195C54.0203 17.7828 55.5321 17.7096 57.0347 17.5814C57.1263 17.5722 57.2271 17.5631 57.3095 17.5905C57.6119 17.6821 57.6668 18.085 57.6668 18.4055C57.6394 20.3195 57.6485 22.2334 57.6852 24.1381C57.6943 24.5685 57.8043 25.1272 58.2257 25.2004C58.015 26.4733 57.9692 27.7737 58.0792 29.0557C58.1158 29.4587 58.1708 29.8891 58.0242 30.2737C57.786 30.9147 57.0896 31.2444 56.5857 31.7023C56.0635 32.1784 55.7245 32.847 55.6328 33.5429C55.4862 32.8012 55.3397 32.0594 55.1931 31.3176C55.0648 30.6858 54.909 29.9898 54.3868 29.6052C53.8645 29.2206 53.1591 29.2664 52.536 29.1198C52.0321 29.0008 51.5648 28.7535 51.1159 28.5154C50.4196 28.14 49.7141 27.7645 49.1185 27.2517C48.468 26.6839 47.9733 25.9696 47.5701 25.2096C47.0937 24.3305 47.1304 23.8085 47.2037 22.8103C47.3411 20.7682 47.4419 18.7169 47.5152 16.6748C47.5243 16.3817 47.7351 13.3781 47.6068 13.3506Z" fill="#F8D0E2"/>
<path d="M50.7233 16.9307C51.4288 17.8281 52.7024 17.938 53.0139 17.993C54.3149 18.2219 55.6617 18.1395 56.9261 17.764C56.9811 17.7457 57.1552 17.8648 57.3109 17.8007C57.6774 17.6358 57.6133 16.8116 57.6316 16.8208C57.6408 16.8208 57.7599 17.8739 57.485 19.4765C57.1918 21.1615 57.0086 22.1871 56.1198 22.938C56.0191 23.0296 54.9471 23.8995 53.6552 23.6615C52.739 23.4966 52.1801 22.8007 51.1173 21.4179C50.4027 20.4838 49.404 19.1651 48.8817 17.1963C48.6985 16.5003 48.6252 15.9966 48.5519 14.9802C48.4328 13.341 48.6344 13.0662 48.7626 12.9289C49.0558 12.6358 49.6422 12.4435 50.0178 12.6633C50.9066 13.1853 49.5781 15.4655 50.7233 16.9307Z" fill="#EBBCD5"/>
<path d="M51.0712 5.97889C51.3369 7.8745 51.1262 9.84336 50.4573 11.6382C50.2466 10.9148 49.8343 10.2188 49.1655 9.85251C48.5058 9.48621 47.5804 9.55948 47.104 10.1364C46.7467 10.576 46.7009 11.1895 46.71 11.7573C46.7192 12.151 46.7558 12.5448 46.9024 12.902C47.159 13.5247 47.7728 13.9642 48.4417 14.0741C49.1013 14.184 49.7977 13.9917 50.3474 13.6071C50.4207 14.3672 50.4848 15.1272 50.5581 15.8965C50.6039 16.391 50.6589 16.9038 50.9155 17.325C51.172 17.7463 51.74 18.1126 52.1982 17.9386H58.3094C59.2256 17.9386 60.0502 17.1968 60.5541 16.4276C61.1863 15.4752 61.2779 14.2664 61.3237 13.1217C61.4153 10.9239 61.4428 8.71698 61.3878 6.51918C60.6824 6.41845 59.6745 6.17119 58.7033 5.53017C57.952 5.03566 57.6222 4.5778 57.5214 4.44044C57.2465 4.04667 57.1091 3.66205 57.0358 3.39648C56.5777 3.76278 56.0463 4.12908 55.4324 4.47706C53.8015 5.40197 52.2348 5.79574 51.0712 5.97889Z" fill="#F8D0E2"/>
<path d="M38.5557 50.4382C38.4916 47.462 38.1068 45.017 37.7769 43.3595C36.1369 45.3558 34.4877 47.3521 32.5728 49.0829C32.2613 49.3668 31.9314 49.6507 31.7574 50.0353C31.5741 50.4199 31.7757 50.8137 32.0506 51.1342C35.2298 54.8613 37.7036 59.1287 40.8279 62.9016C37.6395 63.3137 34.7626 65.4291 33.434 68.3595C29.9158 61.94 20.1672 57.0683 23.0899 49.2661C25.0415 41.473 29.9158 35.6214 34.79 28.8082C36.7416 27.8375 39.6643 27.8375 41.6617 26.5371C43.2651 27.6269 44.6028 28.68 46.197 29.7697C46.8658 30.2276 47.5438 30.6946 48.0294 31.3448C48.6341 32.1598 48.8815 33.1763 49.1106 34.1562C49.6969 36.6928 50.4849 38.9181 52.2898 42.9748C53.7191 46.1891 54.0673 45.8228 54.5804 47.636C55.2126 49.8705 55.1301 51.9675 54.5804 54.962C53.7375 59.5408 52.4822 62.6177 49.1197 71.125C46.8017 76.9858 46.8383 76.94 46.7009 77.1781C43.485 82.5078 37.1356 84.9071 31.2534 86.94C32.417 79.321 33.9105 73.2313 35.1107 68.9364C36.879 62.5628 38.7115 57.6818 38.5557 50.4382Z" fill="white"/>
<path d="M66.5647 75.814C66.2624 78.2773 65.4378 80.6858 64.1642 82.8195C63.981 83.1217 63.8252 83.5704 64.1276 83.7535C64.2284 83.8176 64.3475 83.8176 64.4574 83.8085C65.7126 83.6803 66.0975 81.8671 67.2885 81.4367C66.922 83.836 65.905 86.1345 64.3658 88.0118C66.2349 89.422 69.0935 89.0283 70.816 87.444C72.5293 85.8506 73.1707 83.3231 72.8408 81.0063C72.7675 80.4843 72.6393 79.9623 72.3369 79.5319C72.0621 79.1473 71.6681 78.8726 71.2649 78.6345C69.854 77.8103 68.2231 77.3707 66.5922 77.3891" fill="#F8D0E2"/>
<path d="M55.3685 7.48995C55.2403 7.38922 55.0845 7.32511 54.9287 7.27932C54.7913 7.24269 54.6539 7.20605 54.5164 7.20605C54.2599 7.21521 54.0308 7.33427 53.8109 7.45332C53.5269 7.609 53.252 7.77384 52.9863 7.94784C52.9863 7.94784 54.5073 7.93867 54.6539 7.93867C54.9471 7.94783 56.0282 8.03026 55.3685 7.48995Z" fill="black"/>
<path d="M60.6091 7.93842C60.4076 7.60875 60.0411 7.39814 59.6563 7.3432C59.2715 7.28825 58.8775 7.39814 58.5477 7.5996C58.3644 7.70949 58.1903 7.856 58.1445 8.06662C58.2545 8.02083 58.3278 8.03915 58.4469 8.03915C59.134 8.02083 59.9128 7.95673 60.6091 7.93842Z" fill="black"/>
<path opacity="0.2121" d="M65.5936 48.3413C65.7035 44.4769 65.8134 40.6032 65.9234 36.7388C66.4273 42.0776 66.3632 47.4531 66.299 52.8194C66.2715 54.9073 66.2441 57.0043 66.125 59.0923C66.0242 60.8505 65.9325 61.7113 65.8592 62.2608C65.5935 64.3487 65.1996 66.052 64.8789 67.2241C65.0163 64.9256 65.2179 61.3084 65.3737 56.8212C65.4653 54.0098 65.4744 52.389 65.5936 48.3413Z" fill="#D6C5DF"/>
<path d="M53.8918 9.4672C53.8093 9.7694 53.8276 10.0899 53.9284 10.383C53.9742 10.5295 54.075 10.6852 54.2216 10.6943C54.4049 10.7035 54.524 10.5112 54.5698 10.3372C54.6706 10.0075 54.7164 9.50383 54.4965 9.21079C54.2674 8.89027 53.9742 9.15584 53.8918 9.4672Z" fill="black"/>
<path d="M59.1422 10.1731C59.1514 10.3013 59.1606 10.4295 59.2155 10.5394C59.2705 10.6493 59.3805 10.75 59.5087 10.75C59.6279 10.75 59.7378 10.6584 59.7928 10.5485C59.8478 10.4386 59.8661 10.3104 59.8752 10.1914C59.9027 9.91668 59.9485 9.16576 59.5362 9.11082C59.0873 9.04672 59.1239 9.90752 59.1422 10.1731Z" fill="black"/>
<path opacity="0.9115" d="M34.3594 66.7204C35.1656 67.3522 35.9628 68.1672 36.6408 69.202C36.714 69.3119 36.7782 69.4127 36.8423 69.5226C38.5282 68.6801 40.214 67.8284 41.909 66.9859C41.7349 66.6379 41.0019 65.246 40.2506 64.0738C39.82 63.3962 39.4993 62.9749 39.3344 62.7735C39.142 62.5262 38.9679 62.3247 38.8397 62.1782C38.5465 62.4346 38.1525 62.7918 37.6944 63.2222C37.1447 63.7442 36.7415 64.1654 36.3934 64.5226C35.862 65.072 35.4588 65.5116 35.2664 65.7222C34.9091 66.0885 34.6068 66.4365 34.3594 66.7204Z" fill="#F8D0E2"/>
<path opacity="0.2121" d="M40.9922 67.6271C41.9726 67.1692 42.9712 66.7022 43.75 65.9604C42.2657 66.7846 40.7082 67.6088 39.0865 68.4238C37.9046 69.0191 36.7318 69.5777 35.5957 70.1088C36.4478 69.9897 37.4739 69.2755 38.2711 68.9092C39.1781 68.4788 40.0852 68.0484 40.9922 67.6271Z" fill="#D6C5DF"/>
<path d="M52.6276 93.0574C52.5085 93.7442 52.3345 94.5043 51.7481 94.8798C51.3266 95.1453 50.7952 95.1453 50.3096 95.2644C49.824 95.3834 49.3109 95.7497 49.3476 96.2534C50.1722 95.8962 50.9968 95.5391 51.8214 95.1819C52.0779 95.0721 52.3528 94.9439 52.5269 94.7241C52.7376 94.4585 52.7834 94.1746 52.7926 94.0922C53.0491 92.5263 56.5033 86.5006 56.1826 77.9201C56.1643 77.3248 56.1093 76.4091 55.9719 75.2827C55.2664 76.2809 55.2847 78.323 55.0648 79.5409C54.7991 81.0428 54.5242 82.5446 54.2585 84.0465C53.7088 87.0501 53.1682 90.0538 52.6276 93.0574Z" fill="#203765"/>
<path opacity="0.2121" d="M60.4615 37.8281C60.379 37.9654 60.2324 38.0753 60.0583 38.405C59.7743 38.9636 59.8842 39.2017 59.6369 39.8153C59.5086 40.1266 59.3712 40.3281 59.0963 40.7127C58.7756 41.1614 58.4824 41.4911 58.3816 41.601C58.3633 41.6285 58.345 41.6376 58.345 41.6376C57.7769 42.2329 55.5964 52.4893 56.6042 52.6083C56.8882 52.6449 56.934 51.7841 58.6748 47.7365C59.1238 46.6926 59.7468 45.3556 60.9837 42.7365C61.7533 41.0973 62.7887 38.8904 64.0439 36.2713C62.9719 35.2457 61.8999 34.22 60.828 33.2035C61.5518 33.286 62.2664 33.3684 62.9902 33.4508C62.3305 28.1303 62.0648 26.6559 61.9641 26.6651C61.8541 26.6742 62.4038 28.6339 61.3502 30.0991C60.2232 31.6651 58.3816 31.1889 58.0152 32.2786C57.4471 33.927 61.1944 36.6101 60.4615 37.8281Z" fill="#D6C5DF"/>
<path d="M57.0534 8.40527C57.1908 9.13787 57.3191 9.9071 57.4199 10.7221C57.5207 11.5005 57.594 12.2514 57.6489 12.9657C56.9893 13.0206 56.3296 13.0756 55.6699 13.1305" fill="#EBBCD5"/>
<path d="M58.529 13.332C58.3182 13.7991 57.8876 14.1379 57.4112 14.3119C56.9348 14.4859 56.4125 14.5317 55.9086 14.5317C55.4047 14.5317 55.0107 14.5317 54.5434 14.3485C54.0029 14.1379 53.6455 13.8082 53.4531 13.5976C54.1311 13.5518 54.8091 13.5152 55.4871 13.4786C56.5041 13.4236 57.5211 13.3778 58.529 13.332Z" fill="white"/>
<path opacity="0.2121" d="M29.548 48.9456C28.8425 48.9822 28.137 49.202 27.5781 49.6232C27.9996 49.5225 28.6135 49.4401 29.3556 49.5225C30.4642 49.6507 31.2705 50.1086 31.692 50.3833C31.692 50.2917 31.7011 50.1544 31.7561 49.9987C31.8385 49.7789 31.9668 49.6415 32.0401 49.5774C31.8111 49.4217 31.4996 49.2478 31.1056 49.1196C30.4184 48.8906 29.8595 48.9272 29.548 48.9456Z" fill="#D6C5DF"/>
<path opacity="0.2121" d="M38.5378 49.9986C38.831 50.0444 40.1412 46.2441 39.6464 41.8759C39.6098 41.5371 39.564 41.2624 39.5365 41.0518C38.9501 41.8118 38.3637 42.5627 37.7773 43.3228C37.8598 43.68 37.9697 44.1928 38.0705 44.8063C38.1438 45.2367 38.2813 46.0975 38.3912 47.5353C38.5378 49.5408 38.4462 49.9803 38.5378 49.9986Z" fill="#D6C5DF"/>
<path opacity="0.2121" d="M46.0405 37.0688C46.1596 37.1787 46.3337 37.2336 46.5994 37.4992C47.0392 37.9388 47.0025 38.2135 47.424 38.708C47.6439 38.9644 47.8363 39.1109 48.2119 39.404C48.7342 39.7977 49.1648 40.0267 49.2198 40.0542C50.4933 40.7593 55.4409 49.8069 54.7445 50.1366C54.3597 50.3197 53.187 47.4443 48.1936 40.7043C46.4161 38.3051 44.8586 36.3728 43.7866 35.0725C44.5929 33.7996 45.3991 32.5175 46.2054 31.2446C44.9135 32.2428 43.6308 33.241 42.339 34.2391C41.3036 28.534 41.1021 26.9131 41.2028 26.8948C41.3128 26.8673 41.3861 28.9003 42.8337 29.9717C44.3821 31.1164 45.9947 30.1091 46.6727 31.034C47.7263 32.4351 44.9685 36.1439 46.0405 37.0688Z" fill="#D6C5DF"/>
<path d="M53.4798 40.0991C53.1041 38.6797 51.9405 34.2749 50.0898 31.7108C49.9523 31.5276 49.2469 30.5569 48.3581 29.22C47.8725 28.4874 47.3319 27.6265 46.7456 26.6467C46.3149 25.9233 45.9851 25.328 45.7744 24.9617C45.4354 24.9068 45.0597 24.8793 44.6566 24.8885C42.9708 24.9251 41.6697 25.6302 40.9551 26.1156C41.3399 28.6339 41.9171 31.1156 42.6592 33.5423C43.7312 32.5716 44.9315 31.7383 46.2142 31.0698C45.4445 32.3518 44.6749 33.6339 43.9053 34.9159C45.4812 36.5093 47.167 38.4232 48.8162 40.6943C51.8123 44.8152 53.7363 48.7896 55.0007 52.0313C54.9915 46.9031 54.1944 42.8372 53.4798 40.0991Z" fill="white"/>
<path d="M56.4116 48.7811C56.5033 49.2115 56.5766 49.6877 56.6315 50.1913C56.7232 51.0338 56.7323 51.8031 56.7048 52.4807C61.0752 41.4826 63.0359 36.7573 63.2741 36.4551C63.3016 36.4276 63.5032 36.2078 63.4665 35.9423C63.4482 35.8049 63.3566 35.695 63.2741 35.5943C62.5778 34.7335 61.854 33.891 61.1027 33.076C61.7074 33.2225 62.3396 33.2316 62.9443 33.0943C62.6053 31.4734 62.2571 29.8434 61.9181 28.2225C61.8082 27.7097 61.6982 27.1785 61.405 26.7481C61.3134 26.6108 60.9927 26.1712 60.4064 25.8324C59.8658 25.5119 59.3527 25.4386 59.0778 25.4111C58.18 32.9569 57.2729 40.5027 56.375 48.0485" fill="white"/>
<path d="M57.2825 127.517C58.2629 139.019 58.4003 150.594 57.6948 162.114C56.9527 161.885 56.1464 161.858 55.386 162.013C52.7106 148.945 53.0588 135.493 52.7747 122.16C52.7198 119.394 52.6281 116.629 52.3166 113.872C52.0051 111.18 51.4829 108.524 50.9514 105.869C50.6857 104.522 49.3206 101.107 50.7224 100.154C53.2787 103.744 54.3965 109.147 55.3127 113.396C56.293 117.911 57.2825 122.883 57.2825 127.517Z" fill="#203765"/>
<path d="M35.9167 125.438C36.9062 121.986 37.8316 118.497 39.1509 115.154C41.4232 109.385 44.7948 104.129 48.1574 98.918C45.2163 105.942 42.2661 112.966 39.325 119.989C38.253 122.544 37.1811 125.099 36.2282 127.709C34.6706 131.995 33.4429 136.39 32.0777 140.74C31.0149 144.101 29.8696 147.434 28.6419 150.74C27.5608 153.625 26.5712 158.039 24.6105 160.328C23.0988 159.348 29.3291 145.887 30.0987 143.716C32.2243 137.682 34.1667 131.583 35.9167 125.438Z" fill="#203765"/>
<path d="M61.1762 37.3067C61.3686 36.5741 61.4785 35.814 61.4785 35.054C61.4785 34.5869 61.4419 34.0924 61.2037 33.6804C60.7089 32.8196 59.6095 32.4533 58.6749 32.7188C57.9786 32.9111 57.4564 33.5155 57.1632 34.1749C56.87 34.8342 56.7875 35.5668 56.7051 36.2811" stroke="#231F20" stroke-width="0.5" stroke-miterlimit="10"/>
<path d="M59.5362 32.8649C59.5453 30.5572 59.5453 28.222 58.9406 25.9968C58.7482 25.2825 58.4092 24.5041 57.7129 24.2568" stroke="#231F20" stroke-width="0.5" stroke-miterlimit="10"/>
<path opacity="0.2121" d="M51.9684 38.1488C52.9703 38.1488 53.7825 37.3371 53.7825 36.3357C53.7825 35.3343 52.9703 34.5225 51.9684 34.5225C50.9665 34.5225 50.1543 35.3343 50.1543 36.3357C50.1543 37.3371 50.9665 38.1488 51.9684 38.1488Z" fill="#D6C5DF"/>
<path d="M47.1497 22.2422C46.6733 23.0572 46.4168 23.8264 46.2702 24.4949C45.0882 29.9803 50.5581 34.8795 51.2178 35.4565" stroke="#231F20" stroke-width="0.5" stroke-miterlimit="10"/>
<path d="M52.38 37.6179C53.1896 37.6179 53.846 36.9619 53.846 36.1527C53.846 35.3435 53.1896 34.6875 52.38 34.6875C51.5704 34.6875 50.9141 35.3435 50.9141 36.1527C50.9141 36.9619 51.5704 37.6179 52.38 37.6179Z" fill="white" stroke="#231F20" stroke-width="0.5" stroke-miterlimit="10"/>
</svg>
