<svg width="26" height="26" viewBox="0 0 26 26" fill="none" xmlns="http://www.w3.org/2000/svg">
<path d="M22.6801 15.3193C24.0022 9.723 20.535 4.11503 14.9358 2.79358C9.33664 1.47213 3.72581 4.9376 2.40368 10.5339C1.08156 16.1303 4.5488 21.7382 10.148 23.0597C15.7472 24.3811 21.358 20.9157 22.6801 15.3193Z" fill="#2D3C62"/>
<path d="M12.5344 20.2546C16.6027 20.2546 19.9008 16.9582 19.9008 12.8919C19.9008 8.82567 16.6027 5.5293 12.5344 5.5293C8.46602 5.5293 5.16797 8.82567 5.16797 12.8919C5.16797 16.9582 8.46602 20.2546 12.5344 20.2546Z" fill="#E1E2F5"/>
<path d="M12.5334 16.4451C14.4968 16.4451 16.0884 14.8543 16.0884 12.892C16.0884 10.9297 14.4968 9.33887 12.5334 9.33887C10.5701 9.33887 8.97852 10.9297 8.97852 12.892C8.97852 14.8543 10.5701 16.4451 12.5334 16.4451Z" fill="#182852"/>
<path d="M10.6367 12.8922C10.6367 11.8482 11.4888 10.9966 12.5333 10.9966C13.5778 10.9966 14.4299 11.8482 14.4299 12.8922C14.4299 13.9362 13.5778 14.7878 12.5333 14.7878C11.4888 14.7878 10.6367 13.9362 10.6367 12.8922Z" fill="#FAFFFF"/>
</svg>
