<svg width="35" height="40" viewBox="0 0 35 40" fill="none" xmlns="http://www.w3.org/2000/svg">
<path d="M21.1888 11.5278C21.1196 8.95087 22.1138 5.08545 17.1798 5.08545C12.2459 5.08545 13.1017 12.1721 13.1017 12.1721" stroke="#DC796F" stroke-width="2.8" stroke-linecap="round"/>
<path d="M8.16768 17.398C8.16768 17.398 2 16.4319 2 21.5856C2 26.7393 7.8593 25.7735 8.78444 25.7733" stroke="#DC796F" stroke-width="2.8" stroke-linecap="round"/>
<path d="M27.2867 25.773C29.137 25.3789 33.4543 26.7393 33.4543 21.5855C33.4543 16.4318 27.5951 17.0036 26.6699 17.0038" stroke="#DC796F" stroke-width="2.8" stroke-linecap="round"/>
<path d="M13.7168 31.4993C14.0942 33.432 12.7918 37.9416 17.7258 37.9416C22.6598 37.9416 21.735 31.8214 21.7348 30.855" stroke="#DC796F" stroke-width="2.8" stroke-linecap="round"/>
<path d="M13.1016 12.1719C13.1282 15.2876 14.1932 16.7141 15.0768 16.7141C15.9603 16.7141 26.6706 17.0037 27.9041 17.0037" stroke="#DC796F" stroke-width="2.8" stroke-linecap="round"/>
<path d="M26.3621 25.7012C23.3792 25.7289 21.7363 26.6676 21.7363 27.9561C21.7363 29.2446 21.7363 32.1436 21.7363 33.432" stroke="#DC796F" stroke-width="2.8" stroke-linecap="round"/>
<path d="M9.40039 25.7012C12.1844 25.7289 13.7178 26.6676 13.7178 27.9561C13.7178 29.2446 13.7178 32.1436 13.7178 33.432" stroke="#DC796F" stroke-width="2.8" stroke-linecap="round"/>
</svg>
