<svg width="114" height="116" viewBox="0 0 114 116" fill="none" xmlns="http://www.w3.org/2000/svg">
<path d="M3.80065 1.38477H29.0058V17.6027H1.07031V3.87561C1.07031 2.50198 2.29806 1.38477 3.80065 1.38477Z" stroke="white" stroke-miterlimit="10"/>
<path d="M56.9512 1.38477H29.0156V17.6027H56.9512V1.38477Z" stroke="white" stroke-miterlimit="10"/>
<path d="M84.8867 1.38477H56.9512V17.6027H84.8867V1.38477Z" stroke="white" stroke-miterlimit="10"/>
<path d="M84.8867 1.38477H109.799C111.466 1.38477 112.822 2.62104 112.822 4.14119V17.5936H84.8867V1.38477Z" stroke="white" stroke-miterlimit="10"/>
<path d="M29.0058 17.6025H1.07031V33.8205H29.0058V17.6025Z" stroke="white" stroke-miterlimit="10"/>
<path d="M56.9512 17.6025H29.0156V33.8205H56.9512V17.6025Z" stroke="white" stroke-miterlimit="10"/>
<path d="M84.8867 17.6025H56.9512V33.8205H84.8867V17.6025Z" stroke="white" stroke-miterlimit="10"/>
<path d="M112.822 17.6025H84.8867V33.8205H112.822V17.6025Z" stroke="white" stroke-miterlimit="10"/>
<path d="M29.0058 33.8115H1.07031V50.0295H29.0058V33.8115Z" stroke="white" stroke-miterlimit="10"/>
<path d="M56.9512 33.8115H29.0156V50.0295H56.9512V33.8115Z" stroke="white" stroke-miterlimit="10"/>
<path d="M84.8867 33.8115H56.9512V50.0295H84.8867V33.8115Z" stroke="white" stroke-miterlimit="10"/>
<path d="M112.822 33.8115H84.8867V50.0295H112.822V33.8115Z" stroke="white" stroke-miterlimit="10"/>
<path d="M29.0058 50.0293H1.07031V66.2473H29.0058V50.0293Z" stroke="white" stroke-miterlimit="10"/>
<path d="M56.9512 50.0293H29.0156V66.2473H56.9512V50.0293Z" stroke="white" stroke-miterlimit="10"/>
<path d="M84.8867 50.0293H56.9512V66.2473H84.8867V50.0293Z" stroke="white" stroke-miterlimit="10"/>
<path d="M112.822 50.0293H84.8867V66.2473H112.822V50.0293Z" stroke="white" stroke-miterlimit="10"/>
<path d="M29.0058 66.2476H1.07031V82.4655H29.0058V66.2476Z" stroke="white" stroke-miterlimit="10"/>
<path d="M56.9512 66.2476H29.0156V82.4655H56.9512V66.2476Z" stroke="white" stroke-miterlimit="10"/>
<path d="M84.8867 66.2476H56.9512V82.4655H84.8867V66.2476Z" stroke="white" stroke-miterlimit="10"/>
<path d="M112.822 66.2476H84.8867V82.4655H112.822V66.2476Z" stroke="white" stroke-miterlimit="10"/>
<path d="M29.0058 82.4561H1.07031V98.674H29.0058V82.4561Z" stroke="white" stroke-miterlimit="10"/>
<path d="M56.9512 82.4561H29.0156V98.674H56.9512V82.4561Z" stroke="white" stroke-miterlimit="10"/>
<path d="M84.8867 82.4561H56.9512V98.674H84.8867V82.4561Z" stroke="white" stroke-miterlimit="10"/>
<path d="M112.822 82.4561H84.8867V98.674H112.822V82.4561Z" stroke="white" stroke-miterlimit="10"/>
<path d="M29.0058 98.6743H1.07031V114.892H29.0058V98.6743Z" stroke="white" stroke-miterlimit="10"/>
<path d="M56.9512 98.6743H29.0156V114.892H56.9512V98.6743Z" stroke="white" stroke-miterlimit="10"/>
<path d="M84.8867 98.6743H56.9512V114.892H84.8867V98.6743Z" stroke="white" stroke-miterlimit="10"/>
<path d="M112.822 98.6743H84.8867V114.892H112.822V98.6743Z" stroke="white" stroke-miterlimit="10"/>
</svg>
