<svg width="31" height="30" viewBox="0 0 31 30" fill="none" xmlns="http://www.w3.org/2000/svg">
<path d="M22.8524 22.252C26.9206 18.1859 26.9206 11.5934 22.8524 7.52727C18.7841 3.46114 12.1883 3.46114 8.12006 7.52727C4.05184 11.5934 4.05184 18.1859 8.12006 22.252C12.1883 26.3182 18.7841 26.3182 22.8524 22.252Z" fill="#2D3C62"/>
<path d="M15.4914 22.2546C19.5597 22.2546 22.8578 18.9582 22.8578 14.8919C22.8578 10.8257 19.5597 7.5293 15.4914 7.5293C11.423 7.5293 8.125 10.8257 8.125 14.8919C8.125 18.9582 11.423 22.2546 15.4914 22.2546Z" fill="#E1E2F5"/>
<path d="M15.4905 18.4451C17.4538 18.4451 19.0454 16.8543 19.0454 14.892C19.0454 12.9297 17.4538 11.3389 15.4905 11.3389C13.5271 11.3389 11.9355 12.9297 11.9355 14.892C11.9355 16.8543 13.5271 18.4451 15.4905 18.4451Z" fill="#182852"/>
<path d="M13.5859 14.8917C13.5859 13.8478 14.438 12.9961 15.4825 12.9961C16.527 12.9961 17.3791 13.8478 17.3791 14.8917C17.3791 15.9357 16.527 16.7873 15.4825 16.7873C14.438 16.7873 13.5859 15.9357 13.5859 14.8917Z" fill="#FAFFFF"/>
</svg>
