<svg width="18" height="8" viewBox="0 0 18 8" fill="none" xmlns="http://www.w3.org/2000/svg">
<path d="M12.9204 7.66499C12.783 7.66499 12.6639 7.57342 12.6364 7.43605C12.5998 7.28037 12.7006 7.12469 12.8655 7.08806L16.9426 6.22724C17.0984 6.19061 17.2541 6.29134 17.2908 6.45618C17.3274 6.61186 17.2266 6.76754 17.0617 6.80417L12.9846 7.66499C12.9663 7.66499 12.9388 7.66499 12.9204 7.66499Z" fill="#B3D2F8"/>
<path d="M11.6563 5.05525C11.5738 5.05525 11.4914 5.01862 11.4364 4.95452C11.3265 4.83547 11.3356 4.65233 11.4547 4.54244L14.7348 1.60288C14.8539 1.49299 15.0371 1.50215 15.147 1.6212C15.257 1.74025 15.2478 1.92339 15.1287 2.03328L11.8487 4.97284C11.7937 5.03694 11.7204 5.05525 11.6563 5.05525Z" fill="#B3D2F8"/>
<path d="M5.29673 7.66479C5.27841 7.66479 5.2601 7.66479 5.23262 7.65563L1.15544 6.79481C0.999684 6.75818 0.898901 6.60251 0.926387 6.44683C0.963036 6.29115 1.1188 6.19042 1.27455 6.21789L5.3517 7.07869C5.50746 7.11532 5.60824 7.27101 5.58075 7.42669C5.55327 7.56405 5.43416 7.66479 5.29673 7.66479Z" fill="#B3D2F8"/>
<path d="M6.56977 5.05487C6.49647 5.05487 6.43235 5.0274 6.37737 4.98161L3.09731 2.04206C2.97821 1.93217 2.96905 1.74903 3.079 1.62998C3.18895 1.51093 3.37217 1.50179 3.49128 1.61168L6.77134 4.55121C6.89045 4.6611 6.8996 4.84424 6.78965 4.96329C6.72552 5.02739 6.64307 5.05487 6.56977 5.05487Z" fill="#B3D2F8"/>
<path d="M9.0354 4.588C8.87047 4.588 8.74219 4.45979 8.74219 4.29495V0.412173C8.74219 0.247338 8.87047 0.119141 9.0354 0.119141C9.20033 0.119141 9.32858 0.247338 9.32858 0.412173V4.29495C9.32858 4.45063 9.19116 4.588 9.0354 4.588Z" fill="#B3D2F8"/>
</svg>
