<svg width="8" height="16" viewBox="0 0 8 16" fill="none" xmlns="http://www.w3.org/2000/svg">
<path d="M7.53497 6.48844V10.586C7.53497 10.6671 7.49981 10.7449 7.43722 10.8023C7.37464 10.8597 7.28976 10.8919 7.20125 10.8919H5.98933L5.6117 14.7962C5.60651 14.8715 5.56981 14.9419 5.50925 14.9929C5.4487 15.044 5.36899 15.0715 5.28677 15.0699H2.24819C2.16598 15.0715 2.08626 15.044 2.02571 14.9929C1.96516 14.9419 1.92845 14.8715 1.92326 14.7962L1.54563 10.8919H0.333716C0.245209 10.8919 0.160327 10.8597 0.0977433 10.8023C0.0351594 10.7449 0 10.6671 0 10.586V6.48844C0.00139063 6.01913 0.205391 5.5694 0.567418 5.23754C0.929445 4.90568 1.42006 4.71868 1.93204 4.7174H5.60292C6.1149 4.71868 6.60552 4.90568 6.96755 5.23754C7.32957 5.5694 7.53357 6.01913 7.53497 6.48844ZM3.76748 3.75138C4.17218 3.75138 4.5678 3.64138 4.90429 3.43527C5.24079 3.22917 5.50306 2.93623 5.65793 2.59349C5.81281 2.25075 5.85333 1.87361 5.77437 1.50976C5.69542 1.14591 5.50054 0.811698 5.21437 0.549378C4.9282 0.287058 4.5636 0.108416 4.16668 0.0360417C3.76975 -0.0363322 3.35833 0.000812648 2.98443 0.142779C2.61054 0.284746 2.29096 0.525158 2.06612 0.833614C1.84128 1.14207 1.72127 1.50472 1.72127 1.87569C1.72174 2.37303 1.93747 2.84987 2.32111 3.20153C2.70475 3.5532 3.22494 3.75096 3.76748 3.75138V3.75138Z" fill="#29375F"/>
</svg>
