<svg width="17" height="11" viewBox="0 0 17 11" fill="none" xmlns="http://www.w3.org/2000/svg">
<g clip-path="url(#clip0_7745_1573)">
<path d="M1.68308 0.0878906H10.2703C11.0393 0.0878906 11.6584 0.706995 11.6584 1.47603V8.38247C11.6584 9.15151 11.0393 9.77062 10.2703 9.77062H1.68308C0.914039 9.77062 0.294922 9.15151 0.294922 8.38247V1.47603C0.294922 0.706995 0.914039 0.0878906 1.68308 0.0878906Z" fill="#29375F" fill-opacity="0.7"/>
<path d="M15.6192 1.1122C15.525 1.11575 15.433 1.14929 15.3513 1.20981L12.6172 3.24504V6.61411L15.3513 8.64934C15.4381 8.71388 15.5366 8.74785 15.6368 8.7478C15.7371 8.74775 15.8355 8.71367 15.9223 8.64903C16.0092 8.58439 16.0813 8.49145 16.1314 8.37952C16.1816 8.26759 16.208 8.1406 16.2081 8.01132V1.84783C16.208 1.74923 16.1925 1.65169 16.1627 1.56093C16.1328 1.47017 16.0891 1.38806 16.0342 1.31946C15.9793 1.25087 15.9143 1.19719 15.843 1.16158C15.7717 1.12598 15.6956 1.10915 15.6192 1.11216V1.1122Z" fill="#29375F" fill-opacity="0.7"/>
</g>
<defs>
<clipPath id="clip0_7745_1573">
<rect width="16.5" height="10.1538" fill="white"/>
</clipPath>
</defs>
</svg>
