<svg width="18" height="10" viewBox="0 0 18 10" fill="none" xmlns="http://www.w3.org/2000/svg">
<g clip-path="url(#clip0_7745_1530)">
<path d="M1.81421 0.0839844H11.0676C11.8963 0.0839844 12.5634 0.674076 12.5634 1.40708V7.98987C12.5634 8.72287 11.8963 9.31296 11.0676 9.31296H1.81421C0.985505 9.31296 0.318359 8.72287 0.318359 7.98987V1.40708C0.318359 0.674076 0.985505 0.0839844 1.81421 0.0839844Z" fill="#29375F"/>
<path d="M16.8306 1.05993C16.7291 1.06332 16.6299 1.09529 16.5419 1.15297L13.5957 3.09283V6.30402L16.5419 8.24387C16.6355 8.30539 16.7416 8.33777 16.8496 8.33772C16.9576 8.33767 17.0637 8.30519 17.1573 8.24358C17.2508 8.18197 17.3285 8.09339 17.3825 7.9867C17.4366 7.88001 17.4651 7.75898 17.4652 7.63575V1.76109C17.4651 1.66711 17.4484 1.57414 17.4162 1.48764C17.384 1.40113 17.337 1.32286 17.2778 1.25749C17.2186 1.19211 17.1485 1.14094 17.0717 1.107C16.9949 1.07307 16.9129 1.05703 16.8306 1.0599V1.05993Z" fill="#29375F"/>
</g>
<defs>
<clipPath id="clip0_7745_1530">
<rect width="17.78" height="9.67802" fill="white"/>
</clipPath>
</defs>
</svg>
