<svg width="9" height="17" viewBox="0 0 9 17" fill="none" xmlns="http://www.w3.org/2000/svg">
<path d="M8.03497 6.919V11.2884C8.03497 11.375 7.99747 11.4579 7.93074 11.5191C7.864 11.5803 7.77348 11.6146 7.6791 11.6146H6.38677L5.98408 15.7781C5.97855 15.8583 5.9394 15.9334 5.87483 15.9878C5.81026 16.0422 5.72526 16.0716 5.63759 16.0699H2.39738C2.30971 16.0716 2.2247 16.0422 2.16013 15.9878C2.09556 15.9334 2.05642 15.8583 2.05088 15.7781L1.6482 11.6146H0.355861C0.261481 11.6146 0.170966 11.5803 0.104229 11.5191C0.0374925 11.4579 0 11.375 0 11.2884V6.919C0.00148291 6.41854 0.21902 5.93897 0.605071 5.58509C0.991121 5.23121 1.51429 5.0318 2.06025 5.03044H5.97472C6.52067 5.0318 7.04384 5.23121 7.42989 5.58509C7.81595 5.93897 8.03348 6.41854 8.03497 6.919ZM4.01748 4.00031C4.44904 4.00031 4.8709 3.88301 5.22973 3.66323C5.58856 3.44345 5.86823 3.13107 6.03338 2.76558C6.19853 2.4001 6.24174 1.99794 6.15755 1.60995C6.07335 1.22195 5.86554 0.86556 5.56038 0.585833C5.25523 0.306106 4.86643 0.11561 4.44317 0.0384334C4.0199 -0.0387431 3.58118 0.000866574 3.18247 0.152254C2.78377 0.303641 2.44298 0.560006 2.20322 0.88893C1.96346 1.21785 1.83549 1.60456 1.83549 2.00016C1.83599 2.53049 2.06604 3.03898 2.47513 3.41398C2.88423 3.78898 3.43893 3.99986 4.01748 4.00031Z" fill="#29375F"/>
</svg>
