<svg width="18" height="11" viewBox="0 0 18 11" fill="none" xmlns="http://www.w3.org/2000/svg">
<g clip-path="url(#clip0_5181_15193)">
<path d="M1.78479 0.0932617H10.8924C11.7081 0.0932617 12.3647 0.749887 12.3647 1.56554V8.89055C12.3647 9.70619 11.7081 10.3628 10.8924 10.3628H1.78479C0.969139 10.3628 0.3125 9.70619 0.3125 8.89055V1.56554C0.3125 0.749887 0.969139 0.0932617 1.78479 0.0932617Z" fill="#29375F"/>
<path d="M16.5648 1.1796C16.4649 1.18338 16.3673 1.21894 16.2807 1.28313L13.3809 3.44171V7.01496L16.2807 9.17354C16.3728 9.242 16.4772 9.27803 16.5835 9.27797C16.6898 9.27791 16.7943 9.24177 16.8863 9.17321C16.9784 9.10466 17.0549 9.00609 17.1081 8.88737C17.1613 8.76865 17.1893 8.63397 17.1894 8.49685V1.95982C17.1893 1.85524 17.1729 1.75179 17.1412 1.65553C17.1095 1.55927 17.0632 1.47218 17.005 1.39943C16.9467 1.32668 16.8778 1.26974 16.8021 1.23198C16.7265 1.19422 16.6458 1.17637 16.5648 1.17956V1.1796Z" fill="#29375F"/>
</g>
<defs>
<clipPath id="clip0_5181_15193">
<rect width="17.5" height="10.7692" fill="white"/>
</clipPath>
</defs>
</svg>
