<svg width="595" height="295" viewBox="0 0 595 295" fill="none" xmlns="http://www.w3.org/2000/svg">
<g opacity="0.1">
<path fill-rule="evenodd" clip-rule="evenodd" d="M0 0.25C0 0.111929 0.111929 0 0.25 0H594.126C594.264 0 594.376 0.111929 594.376 0.25V0.25C594.376 0.388071 594.264 0.5 594.126 0.5H0.250012C0.111941 0.5 0 0.388071 0 0.25V0.25Z" fill="black"/>
<path fill-rule="evenodd" clip-rule="evenodd" d="M0 49.25C0 49.1119 0.111929 49 0.25 49H594.126C594.264 49 594.376 49.1119 594.376 49.25V49.25C594.376 49.3881 594.264 49.5 594.126 49.5H0.250012C0.111941 49.5 0 49.3881 0 49.25V49.25Z" fill="black"/>
<path fill-rule="evenodd" clip-rule="evenodd" d="M0 98.25C0 98.1119 0.111929 98 0.25 98H594.126C594.264 98 594.376 98.1119 594.376 98.25V98.25C594.376 98.3881 594.264 98.5 594.126 98.5H0.250012C0.111941 98.5 0 98.3881 0 98.25V98.25Z" fill="black"/>
<path fill-rule="evenodd" clip-rule="evenodd" d="M0 147.25C0 147.112 0.111929 147 0.25 147H594.126C594.264 147 594.376 147.112 594.376 147.25V147.25C594.376 147.388 594.264 147.5 594.126 147.5H0.250012C0.111941 147.5 0 147.388 0 147.25V147.25Z" fill="black"/>
<path fill-rule="evenodd" clip-rule="evenodd" d="M0 196.25C0 196.112 0.111929 196 0.25 196H594.126C594.264 196 594.376 196.112 594.376 196.25V196.25C594.376 196.388 594.264 196.5 594.126 196.5H0.250012C0.111941 196.5 0 196.388 0 196.25V196.25Z" fill="black"/>
<path fill-rule="evenodd" clip-rule="evenodd" d="M0 245.25C0 245.112 0.111929 245 0.25 245H594.126C594.264 245 594.376 245.112 594.376 245.25V245.25C594.376 245.388 594.264 245.5 594.126 245.5H0.250012C0.111941 245.5 0 245.388 0 245.25V245.25Z" fill="black"/>
<path fill-rule="evenodd" clip-rule="evenodd" d="M0 294.25C0 294.112 0.111929 294 0.25 294H594.126C594.264 294 594.376 294.112 594.376 294.25V294.25C594.376 294.388 594.264 294.5 594.126 294.5H0.250012C0.111941 294.5 0 294.388 0 294.25V294.25Z" fill="black"/>
<path fill-rule="evenodd" clip-rule="evenodd" d="M0.25 0C0.388071 0 0.5 0.111929 0.5 0.25L0.5 294.25C0.5 294.388 0.388071 294.5 0.25 294.5V294.5C0.111929 294.5 0 294.388 0 294.25L0 0.249998C0 0.111927 0.111929 0 0.25 0V0Z" fill="black"/>
<path fill-rule="evenodd" clip-rule="evenodd" d="M197.75 0C197.888 0 198 0.111929 198 0.25V294.25C198 294.388 197.888 294.5 197.75 294.5V294.5C197.612 294.5 197.5 294.388 197.5 294.25V0.249998C197.5 0.111927 197.612 0 197.75 0V0Z" fill="black"/>
<path fill-rule="evenodd" clip-rule="evenodd" d="M98.75 0C98.8881 0 99 0.111929 99 0.25V294.25C99 294.388 98.8881 294.5 98.75 294.5V294.5C98.6119 294.5 98.5 294.388 98.5 294.25V0.249998C98.5 0.111927 98.6119 0 98.75 0V0Z" fill="black"/>
<path fill-rule="evenodd" clip-rule="evenodd" d="M296.75 0C296.888 0 297 0.111922 297 0.249985V294.25C297 294.388 296.888 294.5 296.75 294.5V294.5C296.612 294.5 296.5 294.388 296.5 294.25V0.249998C296.5 0.111935 296.612 0 296.75 0V0Z" fill="black"/>
<path fill-rule="evenodd" clip-rule="evenodd" d="M395.75 0C395.888 0 396 0.111922 396 0.249985V294.25C396 294.388 395.888 294.5 395.75 294.5V294.5C395.612 294.5 395.5 294.388 395.5 294.25V0.249998C395.5 0.111935 395.612 0 395.75 0V0Z" fill="black"/>
<path fill-rule="evenodd" clip-rule="evenodd" d="M593.75 0C593.888 0 594 0.111922 594 0.249985V294.25C594 294.388 593.888 294.5 593.75 294.5V294.5C593.612 294.5 593.5 294.388 593.5 294.25V0.249998C593.5 0.111935 593.612 0 593.75 0V0Z" fill="black"/>
<path fill-rule="evenodd" clip-rule="evenodd" d="M494.25 0C494.388 0 494.5 0.111922 494.5 0.249985V294.25C494.5 294.388 494.388 294.5 494.25 294.5V294.5C494.112 294.5 494 294.388 494 294.25V0.249998C494 0.111935 494.112 0 494.25 0V0Z" fill="black"/>
</g>
</svg>
