<svg width="724" height="148" viewBox="0 0 724 148" fill="none" xmlns="http://www.w3.org/2000/svg">
<g opacity="0.1">
<path fill-rule="evenodd" clip-rule="evenodd" d="M0.240234 0.25C0.240234 0.111929 0.352163 0 0.490234 0H723.256C723.394 0 723.506 0.111929 723.506 0.25V0.25C723.506 0.388071 723.394 0.5 723.256 0.5H0.490229C0.352158 0.5 0.240234 0.388071 0.240234 0.25V0.25Z" fill="black"/>
<path fill-rule="evenodd" clip-rule="evenodd" d="M0.240234 49.25C0.240234 49.1119 0.352163 49 0.490234 49H723.256C723.394 49 723.506 49.1119 723.506 49.25V49.25C723.506 49.3881 723.394 49.5 723.256 49.5H0.490229C0.352158 49.5 0.240234 49.3881 0.240234 49.25V49.25Z" fill="black"/>
<path fill-rule="evenodd" clip-rule="evenodd" d="M0.240234 98.25C0.240234 98.1119 0.352163 98 0.490234 98H723.256C723.394 98 723.506 98.1119 723.506 98.25V98.25C723.506 98.3881 723.394 98.5 723.256 98.5H0.490229C0.352158 98.5 0.240234 98.3881 0.240234 98.25V98.25Z" fill="black"/>
<path fill-rule="evenodd" clip-rule="evenodd" d="M0.240234 147.25C0.240234 147.112 0.352163 147 0.490234 147H723.256C723.394 147 723.506 147.112 723.506 147.25V147.25C723.506 147.388 723.394 147.5 723.256 147.5H0.490229C0.352158 147.5 0.240234 147.388 0.240234 147.25V147.25Z" fill="black"/>
<path fill-rule="evenodd" clip-rule="evenodd" d="M-nan -nanL240.834 0V147L-nan -nanL-nan -nanL240.834 147V0L-nan -nanL-nan -nanZ" fill="black" stroke="black"/>
<path fill-rule="evenodd" clip-rule="evenodd" d="M121.166 0C121.442 0 121.666 0.223858 121.666 0.5V146.5C121.666 146.776 121.442 147 121.166 147V147C120.89 147 120.666 146.776 120.666 146.5V0.499997C120.666 0.223854 120.89 0 121.166 0V0Z" fill="black"/>
<path fill-rule="evenodd" clip-rule="evenodd" d="M361.666 0C361.942 0 362.166 0.223858 362.166 0.5V146.5C362.166 146.776 361.942 147 361.666 147V147C361.39 147 361.166 146.776 361.166 146.5V0.499997C361.166 0.223854 361.39 0 361.666 0V0Z" fill="black"/>
<path fill-rule="evenodd" clip-rule="evenodd" d="M-nan -nanL481.332 0V147L-nan -nanL-nan -nanL481.332 147V0L-nan -nanL-nan -nanZ" fill="black" stroke="black"/>
<path fill-rule="evenodd" clip-rule="evenodd" d="M723.498 0C723.774 0 723.998 0.223858 723.998 0.5V146.5C723.998 146.776 723.774 147 723.498 147V147C723.222 147 722.998 146.776 722.998 146.5V0.499997C722.998 0.223854 723.222 0 723.498 0V0Z" fill="black"/>
<path fill-rule="evenodd" clip-rule="evenodd" d="M602.166 0C602.442 0 602.666 0.223858 602.666 0.5V146.5C602.666 146.776 602.442 147 602.166 147V147C601.89 147 601.666 146.776 601.666 146.5V0.499997C601.666 0.223854 601.89 0 602.166 0V0Z" fill="black"/>
</g>
</svg>
