<svg width="22" height="24" viewBox="0 0 22 24" fill="none" xmlns="http://www.w3.org/2000/svg">
<g clip-path="url(#clip0_7745_1603)">
<path d="M9.93937 19.38L11.3494 17.97L12.7694 16.56L14.8894 14.43L13.4794 13.02L11.3494 15.14L9.93937 16.56L8.52938 15.14L7.10938 16.56L8.52938 17.97L9.93937 19.38Z" fill="#8394B8"/>
<path d="M20 2H19V4H18V0H16V2H13V4H12V0H10V2H7V4H6V0H4V2H2C1.46957 2 0.960859 2.21071 0.585786 2.58579C0.210714 2.96086 0 3.46957 0 4V22C0 22.5304 0.210714 23.0391 0.585786 23.4142C0.960859 23.7893 1.46957 24 2 24H16L22 18V4C22 3.46957 21.7893 2.96086 21.4142 2.58579C21.0391 2.21071 20.5304 2 20 2V2ZM20 18H16V22H2V10H20V18Z" fill="#8394B8"/>
</g>
<defs>
<clipPath id="clip0_7745_1603">
<rect width="22" height="24" fill="white"/>
</clipPath>
</defs>
</svg>
