<svg width="24" height="21" viewBox="0 0 24 21" fill="none" xmlns="http://www.w3.org/2000/svg">
<g clip-path="url(#clip0_7745_1595)">
<path d="M8.5201 10.027H6.6801C6.5142 10.0219 6.34815 10.0291 6.1833 10.0483C5.83559 10.1063 5.50734 10.2474 5.22686 10.4592C4.94638 10.6711 4.72208 10.9473 4.5733 11.2643C4.42868 11.5675 4.33444 11.8919 4.29423 12.2249C4.24517 12.5502 4.19917 12.8755 4.15623 13.2038C4.0949 13.6811 4.0397 14.1583 3.9937 14.6356C3.9937 14.7663 3.96917 14.894 3.95997 15.0247C3.95997 15.0825 3.95997 15.1433 3.94463 15.2041C3.94615 15.2324 3.94615 15.2609 3.94463 15.2892C3.94775 15.3175 3.94775 15.346 3.94463 15.3743C3.92122 15.3774 3.89751 15.3774 3.8741 15.3743H1.22143C1.12637 15.3743 1.0313 15.3743 0.936235 15.3743C0.890241 15.371 0.84593 15.3558 0.807725 15.3302C0.76952 15.3046 0.738756 15.2695 0.718501 15.2284C0.647559 15.0981 0.601797 14.9558 0.583568 14.8089C0.549845 14.5987 0.531397 14.3864 0.528368 14.1735C0.517375 13.6297 0.536827 13.0858 0.586634 12.5441C0.632634 11.9908 0.693968 11.4375 0.761435 10.8843C0.810502 10.4982 0.865701 10.1091 0.920901 9.72601C0.952017 9.43782 1.03293 9.15708 1.1601 8.89609C1.32393 8.58203 1.58515 8.32841 1.9053 8.17257C2.18473 8.06697 2.48411 8.02339 2.78237 8.04489H8.17357C8.2717 8.04489 8.51703 8.04489 8.52317 8.04489C8.5293 8.04489 8.5201 9.84457 8.5201 10.027Z" fill="#8394B8"/>
<path d="M11.3482 2.4053H10.6674C10.2507 2.4081 9.84582 2.54225 9.51122 2.78834C9.16048 3.05677 8.89707 3.42149 8.75375 3.83714C8.6172 4.29501 8.54901 4.77024 8.55135 5.24769C8.52069 5.71585 8.52069 6.18706 8.52069 6.6613C8.52069 6.67954 8.52069 6.77378 8.52069 6.78594C8.52069 6.7981 8.48082 6.78594 8.47469 6.78594H6.68069C6.47098 6.77718 6.2662 6.72015 6.08257 6.61937C5.89894 6.51859 5.74149 6.37683 5.62269 6.2053C5.37891 5.86838 5.23162 5.47236 5.19642 5.05922C5.14633 4.47694 5.12994 3.89231 5.14735 3.30818C5.14735 3.01938 5.16269 2.73362 5.18109 2.44482C5.19142 2.22387 5.21394 2.00364 5.24855 1.78514C5.31659 1.35214 5.54649 0.96037 5.89255 0.687696C6.13339 0.516278 6.42417 0.427665 6.72055 0.435376H9.78722C10.0549 0.426385 10.3197 0.492791 10.5508 0.626896C10.9204 0.871513 11.1782 1.2504 11.2684 1.68178C11.3159 1.92023 11.3426 2.1623 11.3482 2.4053V2.4053Z" fill="#8394B8"/>
<path d="M12.5223 12.5441H10.5105C10.23 12.5454 9.95257 12.6024 9.69453 12.7115C9.43649 12.8206 9.20303 12.9797 9.00785 13.1794C8.78744 13.4101 8.6136 13.6804 8.49572 13.9759C8.39514 14.254 8.32722 14.5427 8.29332 14.8362C8.16758 15.6996 8.05718 16.569 7.98665 17.4385L7.95905 17.7881C7.95905 17.8124 7.95905 17.934 7.95905 17.9431C7.95905 17.9522 7.89772 17.9431 7.87932 17.9431H5.01505C4.97149 17.9496 4.92703 17.9467 4.8847 17.9346C4.84236 17.9226 4.80315 17.9016 4.76972 17.8732C4.69467 17.7863 4.64392 17.6815 4.62252 17.5692C4.57786 17.4101 4.54809 17.2473 4.53358 17.0828C4.50443 16.6506 4.50443 16.2169 4.53358 15.7847C4.55505 15.3378 4.59492 14.8909 4.63785 14.4471C4.71145 13.7499 4.79936 13.0538 4.90158 12.3586C4.93138 12.0805 5.00484 11.8087 5.11932 11.553C5.25408 11.2662 5.46638 11.0221 5.73265 10.8477C5.9648 10.7023 6.2339 10.6253 6.50852 10.6258H12.4425C12.4639 10.6228 12.4856 10.6228 12.5069 10.6258C12.51 10.6439 12.51 10.6624 12.5069 10.6805V12.0455C12.5069 12.2188 12.5069 12.3829 12.5223 12.5441Z" fill="#8394B8"/>
<path d="M23.4587 20.4632H8.92579C8.76939 20.4632 8.68659 20.3051 8.64059 20.1592C8.55826 19.8839 8.51694 19.5982 8.51792 19.311C8.50259 18.9189 8.51792 18.5267 8.53939 18.1376C8.58846 17.3077 8.68046 16.4808 8.79086 15.657C8.83379 15.3256 8.87672 14.9942 8.92886 14.6659C8.97136 14.3711 9.07584 14.0883 9.23552 13.836C9.37245 13.6264 9.56002 13.4541 9.78121 13.3346C10.0024 13.2152 10.2502 13.1524 10.5021 13.152H21.7475C21.8912 13.1475 22.035 13.1566 22.1769 13.1794C22.4566 13.2487 22.7133 13.3892 22.9214 13.587C23.1296 13.7848 23.282 14.0331 23.3637 14.3072C23.4542 14.614 23.5158 14.9285 23.5477 15.2466C23.5998 15.6266 23.6489 16.0066 23.6949 16.3835C23.747 16.8426 23.793 17.2955 23.8298 17.7637C23.8666 18.2318 23.885 18.6514 23.8819 19.0952C23.8915 19.4295 23.8574 19.7636 23.7807 20.0893C23.7286 20.2382 23.6489 20.4632 23.4587 20.4632Z" fill="#8394B8"/>
<path d="M19.3751 8.89597C19.3751 9.19997 19.3751 9.48877 19.3537 9.78365C19.3465 10.0018 19.324 10.2192 19.2862 10.4342C19.2406 10.6912 19.1432 10.9364 18.9999 11.1552C18.8566 11.3741 18.6703 11.5621 18.4521 11.708C18.2329 11.8279 17.9846 11.8857 17.7345 11.8752H14.7107C14.4175 11.8802 14.1315 11.7846 13.9011 11.6046C13.5532 11.3128 13.3145 10.9134 13.2234 10.4707C13.1794 10.2502 13.1537 10.0265 13.1467 9.80189C13.1191 9.50397 13.1191 9.19997 13.1191 8.89597C13.1191 8.32445 13.1191 7.75293 13.1835 7.18749C13.1991 6.94518 13.2508 6.70648 13.3369 6.47917C13.4401 6.2133 13.6113 5.97862 13.8337 5.79821C14.0868 5.60703 14.3988 5.50825 14.7169 5.51853H17.7406C17.9838 5.50999 18.2256 5.55897 18.4459 5.66141C18.8196 5.87288 19.0931 6.2228 19.2065 6.63421C19.2621 6.83281 19.297 7.03654 19.3107 7.24221C19.3332 7.50162 19.3486 7.76002 19.3567 8.01741C19.3721 8.32445 19.3751 8.61325 19.3751 8.89597Z" fill="#8394B8"/>
<path d="M15.3228 4.71889C15.3072 4.36755 15.2107 4.02441 15.0407 3.71569C14.8827 3.44582 14.6421 3.23286 14.3538 3.10769C14.1574 3.03729 13.9491 3.00529 13.7404 3.01345C13.5258 3.01345 10.4775 3.01345 10.3058 3.06209C9.97252 3.16008 9.6875 3.37659 9.50538 3.67009C9.3263 3.96877 9.2212 4.30528 9.19871 4.65201C9.15578 5.08977 9.14351 5.53057 9.13431 5.97137C9.12511 6.41217 9.13431 6.92897 9.16191 7.40929C9.17153 7.79464 9.26571 8.17328 9.43791 8.51889C9.59653 8.83807 9.85459 9.09816 10.1739 9.26065C10.3676 9.342 10.5771 9.37939 10.7872 9.37009C11.0019 9.37009 12.5199 9.37009 12.5291 9.37009C12.5383 9.37009 12.5291 9.28193 12.5291 9.26673V9.07521C12.5291 8.95057 12.5291 8.82289 12.5291 8.69825C12.5291 8.19969 12.5444 7.70113 12.5904 7.20561C12.6119 6.81866 12.7066 6.43916 12.8695 6.08689C13.021 5.77662 13.2462 5.50747 13.5258 5.30257C13.7954 5.10506 14.1127 4.98134 14.4458 4.94385C14.6695 4.93172 14.8937 4.93172 15.1174 4.94385H15.3351C15.3351 4.85569 15.329 4.78881 15.3228 4.71889Z" fill="#8394B8"/>
</g>
<defs>
<clipPath id="clip0_7745_1595">
<rect width="24" height="20.6667" fill="white"/>
</clipPath>
</defs>
</svg>
