<svg width="24" height="24" viewBox="0 0 24 24" fill="none" xmlns="http://www.w3.org/2000/svg">
<g clip-path="url(#clip0_7745_1617)">
<path d="M4.07189 23.9171L6.06574 22.1279L8.05853 23.9169L10.0497 22.1279L12.0438 23.9169L14.0361 22.1279L16.0281 23.9169L18.0222 22.1279L20.0145 23.9169L22.0062 22.1279L23.9998 23.9171V0.0664062L22.0057 1.85507L20.014 0.0664062L18.0217 1.85507L16.0276 0.0664062L14.0356 1.85507L12.0433 0.0664062L10.0492 1.85507L8.058 0.0664062L6.06574 1.85507L4.07189 0.0664062L2.08042 1.85507L0.0878906 0.0664062V23.9171L2.08042 22.1282L4.07189 23.9171ZM4.07189 6.02869H20.0142V8.41419H4.07189V6.02869ZM4.07189 10.7992H20.0142V13.1836H4.07189V10.7992ZM4.07189 15.5691H20.0142V17.9541H4.07189V15.5691Z" fill="#8394B8"/>
</g>
<defs>
<clipPath id="clip0_7745_1617">
<rect width="24" height="24" fill="white"/>
</clipPath>
</defs>
</svg>
