<svg width="14" height="14" viewBox="0 0 14 14" fill="none" xmlns="http://www.w3.org/2000/svg">
<g clip-path="url(#clip0_7745_1629)">
<path d="M7 0C5.61553 0 4.26215 0.410543 3.11101 1.17971C1.95987 1.94888 1.06266 3.04213 0.532846 4.32121C0.00303298 5.6003 -0.13559 7.00776 0.134506 8.36563C0.404603 9.7235 1.07129 10.9708 2.05026 11.9497C3.02922 12.9287 4.2765 13.5954 5.63437 13.8655C6.99224 14.1356 8.3997 13.997 9.67879 13.4672C10.9579 12.9373 12.0511 12.0401 12.8203 10.889C13.5895 9.73785 14 8.38447 14 7C14 5.14348 13.2625 3.36301 11.9497 2.05025C10.637 0.737498 8.85652 0 7 0V0ZM7.0868 10.5742C7.11693 10.5904 7.1506 10.5988 7.1848 10.5988C7.219 10.5988 7.25267 10.5904 7.2828 10.5742C7.40374 10.4864 7.51372 10.3844 7.6104 10.2704C7.7504 10.1038 7.8736 9.9232 8.0122 9.7356L8.2068 9.8532C7.9268 10.3208 7.6384 10.7548 7.21 11.0796C6.98496 11.2588 6.71445 11.3717 6.4288 11.4058C5.761 11.4814 5.334 11.0264 5.4936 10.3712C5.6336 9.7958 5.8114 9.2288 5.9738 8.6576C6.1362 8.0864 6.3 7.4928 6.4652 6.9132C6.47851 6.85598 6.48833 6.79801 6.4946 6.7396C6.50728 6.69074 6.50902 6.63969 6.49969 6.59009C6.49037 6.54048 6.47021 6.49355 6.44066 6.45263C6.41111 6.41171 6.37289 6.37782 6.32873 6.35337C6.28457 6.32893 6.23557 6.31453 6.1852 6.3112C6.08373 6.30223 5.98186 6.29849 5.88 6.3C5.88174 6.26643 5.8869 6.23312 5.8954 6.2006L5.915 6.0606L8.3286 5.6742L8.1606 6.2594L8.1228 6.3994C7.7728 7.62206 7.4214 8.84893 7.0686 10.08C7.0326 10.1764 7.00953 10.2771 7 10.3796C6.99993 10.4163 7.00763 10.4526 7.02259 10.4862C7.03755 10.5197 7.05943 10.5497 7.0868 10.5742V10.5742ZM7.6664 4.34C7.55181 4.33927 7.43849 4.31592 7.33293 4.27131C7.22738 4.22669 7.13167 4.16168 7.05129 4.08C6.97091 3.99832 6.90745 3.90158 6.86453 3.79533C6.82162 3.68907 6.80009 3.57539 6.8012 3.4608C6.8012 3.34663 6.82369 3.23357 6.86738 3.12809C6.91107 3.02261 6.97511 2.92677 7.05584 2.84604C7.13657 2.76531 7.23242 2.70127 7.3379 2.65758C7.44338 2.61389 7.55643 2.5914 7.6706 2.5914C7.78477 2.5914 7.89783 2.61389 8.00331 2.65758C8.10879 2.70127 8.20463 2.76531 8.28536 2.84604C8.36609 2.92677 8.43013 3.02261 8.47382 3.12809C8.51751 3.23357 8.54 3.34663 8.54 3.4608C8.53964 3.6929 8.44766 3.91547 8.28407 4.08011C8.12047 4.24476 7.89849 4.33815 7.6664 4.34V4.34Z" fill="#29375F" fill-opacity="0.3"/>
</g>
<defs>
<clipPath id="clip0_7745_1629">
<rect width="14" height="14" fill="white"/>
</clipPath>
</defs>
</svg>
