<svg width="18" height="18" viewBox="0 0 18 18" fill="none" xmlns="http://www.w3.org/2000/svg">
<g clip-path="url(#clip0_7745_1560)">
<path fill-rule="evenodd" clip-rule="evenodd" d="M9 18C4.02944 18 0 13.9706 0 9C0 4.02944 4.02944 0 9 0C13.9706 0 18 4.02944 18 9C18 13.9706 13.9706 18 9 18ZM7.96758 11.2112H9.85283C9.86162 10.8772 9.90776 10.6014 9.99126 10.3839C10.0748 10.1664 10.2242 9.95435 10.4395 9.7478L11.1976 9.04248C11.5184 8.73047 11.7513 8.42505 11.8963 8.12622C12.0413 7.82739 12.1138 7.49561 12.1138 7.13086C12.1138 6.29589 11.8447 5.6521 11.3063 5.19946C10.768 4.74682 10.0088 4.52051 9.02886 4.52051C8.04448 4.52051 7.27984 4.7655 6.73491 5.25549C6.18999 5.74549 5.91313 6.42993 5.90435 7.30884H8.13237C8.14116 6.97925 8.22685 6.71777 8.38945 6.52441C8.55205 6.33105 8.76518 6.23437 9.02886 6.23437C9.60015 6.23437 9.88579 6.56616 9.88579 7.22974C9.88579 7.5022 9.8012 7.75159 9.63201 7.97791C9.46282 8.20422 9.21563 8.45361 8.89043 8.72607C8.56523 8.99854 8.33013 9.32043 8.18511 9.69177C8.04009 10.0631 7.96758 10.5696 7.96758 11.2112ZM7.69731 13.2151C7.69731 13.5403 7.81487 13.8073 8.04998 14.016C8.28508 14.2247 8.57842 14.3291 8.92998 14.3291C9.28154 14.3291 9.57488 14.2247 9.80999 14.016C10.0451 13.8073 10.1626 13.5403 10.1626 13.2151C10.1626 12.8899 10.0451 12.6229 9.80999 12.4142C9.57488 12.2054 9.28154 12.1011 8.92998 12.1011C8.57842 12.1011 8.28508 12.2054 8.04998 12.4142C7.81487 12.6229 7.69731 12.8899 7.69731 13.2151Z" fill="#29375F" fill-opacity="0.3"/>
</g>
<defs>
<clipPath id="clip0_7745_1560">
<rect width="18" height="18" fill="white"/>
</clipPath>
</defs>
</svg>
