<svg width="25" height="25" viewBox="0 0 25 25" fill="none" xmlns="http://www.w3.org/2000/svg">
<g clip-path="url(#clip0_7745_1621)">
<path d="M12.5 0C5.6075 0 0 5.6075 0 12.5C0 19.3925 5.6075 25 12.5 25C19.3925 25 25 19.3925 25 12.5C25 5.6075 19.3925 0 12.5 0ZM16.6667 9.02778C17.0503 9.02778 17.3611 9.33861 17.3611 9.72222C17.3611 10.1058 17.0503 10.4167 16.6667 10.4167H14.5206C14.1883 12.3842 12.4772 13.8889 10.4167 13.8889H10.01L15.0744 18.9533C15.3458 19.2244 15.3458 19.6642 15.0744 19.9353C14.9389 20.0711 14.7611 20.1389 14.5833 20.1389C14.4056 20.1389 14.2278 20.0711 14.0922 19.9356L7.84222 13.6856C7.64361 13.4869 7.58417 13.1883 7.69167 12.9289C7.79917 12.6692 8.0525 12.5 8.33333 12.5H10.4167C11.7083 12.5 12.7933 11.6128 13.1031 10.4167H8.33333C7.94972 10.4167 7.63889 10.1058 7.63889 9.72222C7.63889 9.33861 7.94972 9.02778 8.33333 9.02778H13.1031C12.7933 7.83167 11.7083 6.94444 10.4167 6.94444H8.33333C7.94972 6.94444 7.63889 6.63361 7.63889 6.25C7.63889 5.86639 7.94972 5.55556 8.33333 5.55556H16.6667C17.0503 5.55556 17.3611 5.86639 17.3611 6.25C17.3611 6.63361 17.0503 6.94444 16.6667 6.94444H13.5197C14.0339 7.51833 14.3886 8.23583 14.5222 9.02778H16.6667Z" fill="#8394B8"/>
</g>
<defs>
<clipPath id="clip0_7745_1621">
<rect width="25" height="25" fill="white"/>
</clipPath>
</defs>
</svg>
