<svg width="24" height="24" viewBox="0 0 24 24" fill="none" xmlns="http://www.w3.org/2000/svg">
<g clip-path="url(#clip0_5181_15336)">
<path d="M16.5 16H15.71L15.43 15.73C16.41 14.59 17 13.11 17 11.5C17 7.91 14.09 5 10.5 5C6.91 5 4 7.91 4 11.5C4 15.09 6.91 18 10.5 18C12.11 18 13.59 17.41 14.73 16.43L15 16.71V17.5L20 22.49L21.49 21L16.5 16ZM10.5 16C8.01 16 6 13.99 6 11.5C6 9.01 8.01 7 10.5 7C12.99 7 15 9.01 15 11.5C15 13.99 12.99 16 10.5 16Z" fill="#C0CEFF"/>
</g>
<defs>
<clipPath id="clip0_5181_15336">
<rect width="24" height="24" fill="white"/>
</clipPath>
</defs>
</svg>
