<svg width="36" height="36" viewBox="0 0 36 36" fill="none" xmlns="http://www.w3.org/2000/svg">
<circle cx="18" cy="18" r="18" fill="#F0F4FD"/>
<g clip-path="url(#clip0_7745_1347)">
<path d="M13.5588 12.366H21.3263C21.6013 12.366 21.8304 12.1345 21.8304 11.8567V9.63449C21.8304 9.35671 21.6013 9.12522 21.3263 9.12522H20.0203V9.07893C19.9515 7.69003 18.8288 6.60205 17.454 6.60205C16.0792 6.60205 14.9565 7.69003 14.8877 9.07893V9.12522H13.5588C13.2838 9.12522 13.0547 9.35671 13.0547 9.63449V11.8567C13.0547 12.1345 13.2838 12.366 13.5588 12.366ZM17.454 8.12984C18.0268 8.12984 18.4851 8.59281 18.4851 9.17152C18.4851 9.75023 18.0268 10.2132 17.454 10.2132C16.8812 10.2132 16.4229 9.75023 16.4229 9.17152C16.4229 8.61596 16.8812 8.12984 17.454 8.12984Z" fill="#BFD2F3"/>
<path d="M24.6952 10.6299H23.0225V11.8336C23.0225 12.7595 22.2664 13.5234 21.3499 13.5234H13.5824C12.6659 13.5234 11.9097 12.7595 11.9097 11.8336V10.6299H10.3287C9.68716 10.6299 9.16016 11.1623 9.16016 11.8105V27.3893C9.16016 28.0375 9.68716 28.5699 10.3287 28.5699H24.7181C25.3597 28.5699 25.8867 28.0375 25.8867 27.3893V11.8105C25.8638 11.1623 25.3368 10.6299 24.6952 10.6299ZM22.3581 24.8893C22.3581 25.1208 22.1748 25.2828 21.9685 25.2828H13.0554C12.8262 25.2828 12.6659 25.0976 12.6659 24.8893V24.218C12.6659 23.9865 12.8492 23.8245 13.0554 23.8245H21.9456C22.1748 23.8245 22.3352 24.0097 22.3352 24.218V24.8893H22.3581ZM22.3581 21.1624C22.3581 21.3939 22.1748 21.5559 21.9685 21.5559H13.0554C12.8262 21.5559 12.6659 21.3707 12.6659 21.1624V20.4911C12.6659 20.2596 12.8492 20.0976 13.0554 20.0976H21.9456C22.1748 20.0976 22.3352 20.2828 22.3352 20.4911V21.1624H22.3581ZM22.3581 17.4355C22.3581 17.667 22.1748 17.829 21.9685 17.829H13.0554C12.8262 17.829 12.6659 17.6438 12.6659 17.4355V16.7642C12.6659 16.5327 12.8492 16.3707 13.0554 16.3707H21.9456C22.1748 16.3707 22.3352 16.5559 22.3352 16.7642V17.4355H22.3581Z" fill="#BFD2F3"/>
</g>
<defs>
<clipPath id="clip0_7745_1347">
<rect width="17" height="23" fill="white" transform="translate(9 6)"/>
</clipPath>
</defs>
</svg>
