<svg width="24" height="16" viewBox="0 0 24 16" fill="none" xmlns="http://www.w3.org/2000/svg">
<path opacity="0.2" d="M1.0931 14.5684C1.00148 14.7699 0.909861 14.9713 0.818239 15.1728C0.451751 14.3944 0.754105 13.3596 1.47792 12.9017C2.21089 12.4438 3.27371 12.6178 3.81427 13.2955C2.99884 11.1893 3.52109 8.54275 5.28939 7.14166C7.06685 5.74056 10.0262 6.00613 11.2906 7.87426C10.9974 5.37426 11.9595 2.65448 14.0484 1.23507C16.1283 -0.184343 19.3075 0.0537528 20.8834 2.02262C22.0195 3.45119 22.1753 5.46584 21.7172 7.23324C21.2682 9.00064 20.2879 10.5757 19.3259 12.1233C20.0039 11.5006 21.0667 11.3175 21.9096 11.6929C22.7617 12.0592 23.3481 12.9567 23.3572 13.8816C23.4672 14.1746 22.9358 14.5318 22.7159 14.3211L1.0931 14.5684Z" fill="#A6CAFC"/>
</svg>
