<svg width="108" height="47" viewBox="0 0 108 47" fill="none" xmlns="http://www.w3.org/2000/svg">
<path d="M85.8522 42.918C84.8993 44.8411 82.8928 45.9857 80.8405 45.7934C78.0552 45.537 76.7817 42.9821 76.7267 42.863C76.0395 44.6304 74.3811 45.8209 72.5212 45.8942C70.5147 45.9766 68.6548 44.7312 67.9218 42.8081C67.8852 42.9271 67.0056 45.3172 64.6967 45.7934C62.6902 46.2055 60.4821 44.9693 59.6209 42.7623C58.7321 44.6121 56.9089 45.8392 54.9023 45.94C52.6759 46.0498 50.5595 44.7678 49.5883 42.6982C48.8919 44.6304 47.142 45.9674 45.1538 46.0865C42.9457 46.2238 40.8475 44.8136 40.0871 42.6432C39.6015 44.6762 37.9431 46.1781 36.0007 46.3795C33.7102 46.6176 31.4563 45.0242 30.8699 42.5883C30.2469 44.6945 28.3778 46.178 26.243 46.2788C23.925 46.3887 21.781 44.8319 21.1213 42.5242C20.3792 44.6213 18.4002 46.0498 16.1921 46.0773C13.9107 46.1048 11.8492 44.6488 11.1071 42.4693C10.1909 44.3557 8.31261 45.6011 6.25111 45.6835C3.99721 45.7751 1.88074 44.4839 0.900391 42.4052C9.68693 28.559 18.4643 14.7129 27.2508 0.866699C53.8487 1.20553 80.4374 1.54436 107.035 1.88318C99.9711 15.5737 92.9071 29.2458 85.8522 42.918Z" fill="#B3D2F8"/>
</svg>
