<svg width="133" height="69" viewBox="0 0 133 69" fill="none" xmlns="http://www.w3.org/2000/svg">
<path d="M2.0789 60.83C2.71109 63.0461 3.51737 64.8043 4.48856 65.6468C6.34849 67.2494 32.2867 68.0919 60.1672 68.0736C70.3556 68.0644 80.8005 67.9454 90.4208 67.7073C110.999 67.1944 127.812 66.1413 130.286 64.5113C130.863 64.1358 131.303 62.8172 131.641 60.83C132.21 57.46 132.484 51.8739 132.53 45.5003C132.558 42.1487 132.521 38.5681 132.439 34.9783C132.2 24.8318 131.577 13.0644 130.817 6.46185C130.67 5.14317 130.505 4.03512 130.35 3.18348C130.176 2.25857 130.001 1.645 129.818 1.39775C128.801 -0.00334876 110.807 0.179819 90.4116 0.0424567C80.3241 -0.0216459 69.6501 0.0516052 60.1581 0.262228C44.619 0.601056 32.2225 1.29704 30.7199 2.30436C30.3718 2.54246 30.0144 2.8355 29.6479 3.19264C28.8142 4.01682 27.9529 5.13402 27.0825 6.47102C21.6585 14.8318 16.1429 31.3336 16.1429 31.3336C16.1429 31.3336 12.7254 32.9545 9.12463 34.9783C5.62467 36.9472 1.9598 39.2915 1.10771 40.9216C0.686251 41.7183 0.438874 43.3849 0.365576 45.5003C0.191495 49.9234 0.787033 56.3245 2.0789 60.83Z" fill="#FAFFFF"/>
</svg>
