<svg width="511" height="214" viewBox="0 0 511 214" fill="none" xmlns="http://www.w3.org/2000/svg">
<path opacity="0.2" d="M61.7718 210.973C206.736 211.797 351.7 212.621 496.664 213.454C509.18 213.454 513.77 193.656 508.85 182.154C503.939 170.652 493.632 162.291 487.64 151.312C480.685 138.564 480.218 122.484 486.421 109.352C490.352 101.019 496.692 94.0131 500.751 85.7439C512.918 60.927 498.799 26.9435 472.614 18.0516C448.096 9.71823 421.544 21.7695 399.637 35.5699C377.73 49.3702 355.539 65.7988 329.674 67.09C317.012 67.7219 303.452 64.0406 295.224 54.3886C286.42 44.068 285.228 29.0772 277.322 18.0607C268.7 6.04606 253.124 0.579033 238.336 0.643135C223.549 0.707238 209.228 5.51493 195.311 10.5149C179.405 16.2292 163.316 22.4105 150.095 32.9417C142.555 38.9398 135.757 46.9984 134.914 56.5955C133.548 72.1908 148.107 85.9453 146.54 101.522C145.807 108.784 141.602 115.231 136.929 120.845C128.115 131.403 115.6 140.661 101.902 139.416C89.2401 138.262 79.2716 128.638 69.8529 120.094C60.8739 111.953 51.1162 104.169 39.5627 100.506C36.5208 99.5442 15.6219 94.4252 5.36021 106.284C-1.6397 114.361 0.0827874 126.009 0.504248 128.867C2.08015 139.572 8.35625 146.751 10.94 149.737C23.1257 163.775 40.149 184.672 61.7718 210.973Z" fill="#A6CAFC"/>
</svg>
