<svg width="12" height="13" viewBox="0 0 12 13" fill="none" xmlns="http://www.w3.org/2000/svg">
<path d="M0.722266 9.31171C1.17121 8.24944 2.24319 7.5901 3.32433 7.16885C4.67117 6.63771 6.14628 6.37214 7.58474 6.53698C9.02321 6.70181 10.4342 7.32453 11.4329 8.36849C10.3609 6.37214 9.3439 4.22928 8.42768 1.93073C8.31773 1.64685 8.20777 1.36297 8.09783 1.07909C7.88709 1.18898 7.70384 1.23475 7.60306 1.26222C6.49443 1.50032 5.96304 0.630351 4.31385 0.831817C3.06779 0.914235 2.01413 1.23477 1.21702 1.56444C1.15288 2.01316 1.07042 2.63586 0.997121 3.38678C0.997121 3.38678 0.914672 4.30253 0.850537 5.32818C0.703941 7.74577 0.438232 10.2641 0.758909 12.6725C4.51541 12.526 8.26274 12.0407 11.9276 11.2165C11.9826 10.1817 11.946 9.14689 11.8085 8.12124C11.7719 7.84652 11.7261 7.56264 11.552 7.35201C11.3596 7.12308 11.0572 7.02233 10.764 6.93991C9.09651 6.47288 7.36485 6.1432 5.63319 6.24393C4.54289 6.30803 3.4526 6.54613 2.46308 7.01316C1.23534 7.59924 0.722266 7.9564 0.722266 9.31171Z" fill="#5F88D2"/>
</svg>
