<svg width="7" height="13" viewBox="0 0 7 13" fill="none" xmlns="http://www.w3.org/2000/svg">
<path d="M4.6904 4.22149C5.22181 5.4028 6.18384 6.43761 6.29378 7.71966C6.37624 8.62625 6.00976 9.52369 5.51501 10.2929C4.97444 11.1263 4.21397 11.8772 3.2611 12.1702C2.30823 12.4541 1.13548 12.1702 0.604072 11.3277C0.255909 10.7691 0.22842 10.0823 0.200934 9.42296C0.145961 7.83871 0.100151 6.26361 0.0451781 4.67936C0.036016 4.48705 0.0360087 4.28559 0.109306 4.1116C0.173442 3.95592 0.301718 3.83688 0.429988 3.71783C1.06218 3.11344 1.69436 2.50903 2.32655 1.90464C2.75718 1.49255 3.7467 0.338711 4.37889 0.466916C4.21397 1.7856 4.12234 2.96691 4.6904 4.22149Z" fill="black"/>
</svg>
