<svg width="10" height="12" viewBox="0 0 10 12" fill="none" xmlns="http://www.w3.org/2000/svg">
<path d="M1.71259 10.337C1.93369 10.337 2.14574 10.2597 2.30209 10.1222C2.45843 9.98467 2.54627 9.79814 2.54627 9.60365V6.97098L5.12234 9.23698L3.62171 10.5496C3.54358 10.6178 3.48155 10.6989 3.43923 10.7883C3.3969 10.8777 3.37511 10.9735 3.37511 11.0703C3.37511 11.1671 3.3969 11.263 3.43923 11.3523C3.48155 11.4417 3.54358 11.5228 3.62171 11.591C3.69922 11.6597 3.79142 11.7143 3.89301 11.7515C3.99461 11.7887 4.10357 11.8079 4.21363 11.8079C4.32368 11.8079 4.43265 11.7887 4.53424 11.7515C4.63583 11.7143 4.72804 11.6597 4.80554 11.591L6.29783 10.271L7.79012 11.591C7.86762 11.6597 7.95982 11.7143 8.06142 11.7515C8.16301 11.7887 8.27197 11.8079 8.38203 11.8079C8.49209 11.8079 8.60105 11.7887 8.70264 11.7515C8.80424 11.7143 8.89644 11.6597 8.97394 11.591C9.05208 11.5228 9.1141 11.4417 9.15643 11.3523C9.19875 11.263 9.22054 11.1671 9.22054 11.0703C9.22054 10.9735 9.19875 10.8777 9.15643 10.7883C9.1141 10.6989 9.05208 10.6178 8.97394 10.5496L7.47332 9.23698L8.97394 7.92431C9.13093 7.78622 9.21912 7.59893 9.21912 7.40365C9.21912 7.20836 9.13093 7.02107 8.97394 6.88298C8.81696 6.74489 8.60404 6.66731 8.38203 6.66731C8.16002 6.66731 7.9471 6.74489 7.79012 6.88298L6.29783 8.20298L3.72176 5.93698H4.21363C5.09805 5.93698 5.94625 5.62793 6.57163 5.07783C7.19701 4.52772 7.54835 3.78161 7.54835 3.00365C7.54835 2.22568 7.19701 1.47957 6.57163 0.929466C5.94625 0.379359 5.09805 0.0703125 4.21363 0.0703125H1.71259C1.49148 0.0703125 1.27943 0.147574 1.12309 0.285101C0.96674 0.422628 0.878906 0.609154 0.878906 0.803646V9.60365C0.878906 9.79814 0.96674 9.98467 1.12309 10.1222C1.27943 10.2597 1.49148 10.337 1.71259 10.337ZM2.54627 1.53698H4.21363C4.65584 1.53698 5.07994 1.6915 5.39263 1.96656C5.70532 2.24161 5.88099 2.61466 5.88099 3.00365C5.88099 3.39263 5.70532 3.76568 5.39263 4.04074C5.07994 4.31579 4.65584 4.47031 4.21363 4.47031H2.54627V1.53698Z" fill="#D30000"/>
</svg>
