<svg width="30" height="19" viewBox="0 0 30 19" fill="none" xmlns="http://www.w3.org/2000/svg">
<path opacity="0.2" d="M1.48872 18.068C1.36961 18.3245 1.25966 18.5809 1.14055 18.8373C0.673278 17.8483 1.05809 16.5387 1.98347 15.9527C2.90885 15.3757 4.25571 15.5955 4.94287 16.4472C3.90754 13.7732 4.56721 10.4124 6.82111 8.63581C9.07502 6.85925 12.8224 7.19808 14.4257 9.56987C14.0501 6.39222 15.2778 2.94899 17.9165 1.14496C20.5553 -0.659067 24.5866 -0.356869 26.584 2.14313C28.0225 3.95632 28.2149 6.51126 27.6468 8.7457C27.0788 10.9801 25.8327 12.9856 24.6049 14.9453C25.4662 14.1486 26.813 13.9288 27.885 14.3959C28.957 14.8629 29.7083 15.9984 29.7175 17.1706C29.8549 17.5461 29.186 18.0039 28.9112 17.7201L1.48872 18.068Z" fill="#A6CAFC"/>
</svg>
