<svg width="55" height="34" viewBox="0 0 55 34" fill="none" xmlns="http://www.w3.org/2000/svg">
<path opacity="0.2" d="M16.8579 17.9892C15.9966 14.7658 15.3919 11.231 16.7204 8.1632C18.1039 4.96723 21.3198 2.96173 24.5633 1.68883C29.5566 -0.280031 36.1259 -0.554753 39.4243 3.66686C42.7227 7.87931 40.9452 13.9782 38.9296 18.9324C42.1455 17.9526 45.7829 21.3683 45.0041 24.6467C47.258 23.383 50.2998 23.7493 52.1964 25.5075C54.0838 27.2658 54.5969 30.242 53.4974 32.5771C41.6049 32.5771 29.7124 32.5771 17.8199 32.5771C14.0542 32.5771 7.51241 33.8866 3.93 32.5771C-7.53189 28.4013 15.621 13.383 16.8579 17.9892Z" fill="#A6CAFC"/>
</svg>
