<svg width="16" height="16" viewBox="0 0 16 16" fill="none" xmlns="http://www.w3.org/2000/svg">
<path d="M8 0C3.5888 0 0 3.5888 0 8C0 12.4112 3.5888 16 8 16C12.4112 16 16 12.4112 16 8C16 3.5888 12.4112 0 8 0ZM1.6 8C1.6 6.5232 2.1072 5.1664 2.9504 4.0824L11.9176 13.0496C10.7992 13.9247 9.42004 14.4001 8 14.4C4.4712 14.4 1.6 11.5288 1.6 8ZM13.0496 11.9176L4.0824 2.9504C5.20084 2.07544 6.57998 1.60005 8 1.6C11.5288 1.6 14.4 4.4712 14.4 8C14.3996 9.41996 13.9242 10.799 13.0496 11.9176Z" fill="#FC6964"/>
</svg>
