<svg width="56" height="33" viewBox="0 0 56 33" fill="none" xmlns="http://www.w3.org/2000/svg">
<path opacity="0.2" d="M2.62246 32.8504C-0.355253 30.2863 -0.45604 26.2204 1.49551 24.279C2.84235 22.9328 5.17871 22.6215 7.33183 23.4182C5.8842 19.1325 6.57136 14.3431 8.4038 10.2039C10.3462 5.8083 13.9653 1.7332 18.7204 1.0006C23.4756 0.258844 28.8813 4.28815 28.1575 9.0409C29.5227 8.41819 31.3001 8.83943 32.2255 10.0208C33.16 11.2021 33.16 13.0244 32.2347 14.2057C33.7739 14.105 35.4323 14.2057 36.6508 15.149C37.8694 16.0922 38.3092 18.1343 37.1731 19.1691C40.8838 15.6984 47.1965 15.4695 51.1546 18.6563C55.1127 21.8523 56.3312 28.1343 53.7108 32.4933C36.6692 32.6123 19.6458 32.7314 2.62246 32.8504Z" fill="#A6CAFC"/>
</svg>
